<?xml version="1.0" encoding="UTF-8" standalone="no"?>
<!-- Created with Inkscape (http://www.inkscape.org/) -->

<svg
   width="297mm"
   height="210mm"
   viewBox="0 0 1122.5197 793.70081"
   version="1.1"
   id="svg1"
   inkscape:version="1.3.2 (091e20e, 2023-11-25, custom)"
   sodipodi:docname="drawing.svg"
   inkscape:export-filename="Logo.png"
   inkscape:export-xdpi="96"
   inkscape:export-ydpi="96"
   xml:space="preserve"
   xmlns:inkscape="http://www.inkscape.org/namespaces/inkscape"
   xmlns:sodipodi="http://sodipodi.sourceforge.net/DTD/sodipodi-0.dtd"
   xmlns:xlink="http://www.w3.org/1999/xlink"
   xmlns="http://www.w3.org/2000/svg"
   xmlns:svg="http://www.w3.org/2000/svg"><sodipodi:namedview
     id="namedview1"
     pagecolor="#ffffff"
     bordercolor="#000000"
     borderopacity="0.25"
     inkscape:showpageshadow="2"
     inkscape:pageopacity="0.0"
     inkscape:pagecheckerboard="0"
     inkscape:deskcolor="#d1d1d1"
     inkscape:document-units="mm"
     inkscape:zoom="1.0545536"
     inkscape:cx="545.25441"
     inkscape:cy="455.64303"
     inkscape:window-width="1920"
     inkscape:window-height="1051"
     inkscape:window-x="-9"
     inkscape:window-y="-9"
     inkscape:window-maximized="1"
     inkscape:current-layer="layer3" /><defs
     id="defs1"><inkscape:path-effect
       effect="perspective-envelope"
       up_left_point="444.03021,457.0584"
       up_right_point="759.30392,412.4941"
       down_left_point="441.55442,515.6402"
       down_right_point="743.89086,508.83176"
       id="path-effect3"
       is_visible="true"
       lpeversion="1"
       deform_type="perspective"
       horizontal_mirror="false"
       vertical_mirror="false"
       overflow_perspective="false" /><inkscape:path-effect
       effect="perspective-envelope"
       up_left_point="444.03021,457.0584"
       up_right_point="757.51199,412.4941"
       down_left_point="441.55442,515.6402"
       down_right_point="735.22984,508.83176"
       id="path-effect13"
       is_visible="true"
       lpeversion="1"
       deform_type="perspective"
       horizontal_mirror="false"
       vertical_mirror="false"
       overflow_perspective="false" /><inkscape:path-effect
       effect="perspective-envelope"
       up_left_point="476.62369,314.79088"
       up_right_point="557.77977,321.73239"
       down_left_point="485.82522,349.50525"
       down_right_point="570.37134,337.55941"
       id="path-effect11"
       is_visible="true"
       lpeversion="1"
       deform_type="perspective"
       horizontal_mirror="false"
       vertical_mirror="false"
       overflow_perspective="false" /><inkscape:path-effect
       effect="perspective-envelope"
       up_left_point="444.03021,457.0584"
       up_right_point="757.51199,412.4941"
       down_left_point="441.55442,515.6402"
       down_right_point="735.22984,508.83176"
       id="path-effect19"
       is_visible="true"
       lpeversion="1"
       deform_type="perspective"
       horizontal_mirror="false"
       vertical_mirror="false"
       overflow_perspective="false" /><inkscape:path-effect
       effect="perspective-envelope"
       up_left_point="476.62369,314.79088"
       up_right_point="555.39599,322.81054"
       down_left_point="485.82522,349.50525"
       down_right_point="567.31711,337.51653"
       id="path-effect17"
       is_visible="true"
       lpeversion="1"
       deform_type="perspective"
       horizontal_mirror="false"
       vertical_mirror="false"
       overflow_perspective="false" /><linearGradient
       id="linearGradient13"
       inkscape:collect="always"><stop
         style="stop-color:#2c6d00;stop-opacity:1;"
         offset="0"
         id="stop12" /><stop
         style="stop-color:#32a50e;stop-opacity:1;"
         offset="1"
         id="stop13" /></linearGradient><linearGradient
       id="linearGradient10"
       inkscape:collect="always"><stop
         style="stop-color:#4daa00;stop-opacity:1;"
         offset="0"
         id="stop10" /><stop
         style="stop-color:#126a00;stop-opacity:1;"
         offset="1"
         id="stop11" /></linearGradient><inkscape:path-effect
       effect="perspective-envelope"
       up_left_point="476.62369,314.79088"
       up_right_point="557.77977,321.73239"
       down_left_point="485.82522,349.50525"
       down_right_point="570.37134,337.55941"
       id="path-effect10"
       is_visible="true"
       lpeversion="1"
       deform_type="perspective"
       horizontal_mirror="false"
       vertical_mirror="false"
       overflow_perspective="false" /><inkscape:path-effect
       effect="perspective-envelope"
       up_left_point="248.01315,224.32442"
       up_right_point="834.46754,224.32442"
       down_left_point="248.01315,384.59395"
       down_right_point="834.46754,384.59395"
       id="path-effect9"
       is_visible="true"
       lpeversion="1"
       deform_type="perspective"
       horizontal_mirror="false"
       vertical_mirror="false"
       overflow_perspective="false" /><inkscape:path-effect
       effect="perspective-envelope"
       up_left_point="248.01315,224.32442"
       up_right_point="834.46754,224.32442"
       down_left_point="248.01315,384.59395"
       down_right_point="834.46754,384.59395"
       id="path-effect6"
       is_visible="true"
       lpeversion="1"
       deform_type="perspective"
       horizontal_mirror="false"
       vertical_mirror="false"
       overflow_perspective="false" /><inkscape:path-effect
       effect="perspective-envelope"
       up_left_point="248.01315,224.32442"
       up_right_point="834.46754,224.32442"
       down_left_point="248.01315,384.59395"
       down_right_point="834.46754,384.59395"
       id="path-effect2"
       is_visible="true"
       lpeversion="1"
       deform_type="perspective"
       horizontal_mirror="false"
       vertical_mirror="false"
       overflow_perspective="false" /><inkscape:path-effect
       effect="perspective-envelope"
       up_left_point="420.89274,363.74918"
       up_right_point="510.39939,374.47348"
       down_left_point="447.04496,395.56972"
       down_right_point="535.79903,392.37125"
       id="path-effect8"
       is_visible="true"
       lpeversion="1"
       deform_type="perspective"
       horizontal_mirror="false"
       vertical_mirror="false"
       overflow_perspective="false" /><inkscape:path-effect
       effect="perspective-envelope"
       up_left_point="444.03021,457.0584"
       up_right_point="757.51199,412.4941"
       down_left_point="441.55442,515.6402"
       down_right_point="735.22984,508.83176"
       id="path-effect5"
       is_visible="true"
       lpeversion="1"
       deform_type="perspective"
       horizontal_mirror="false"
       vertical_mirror="false"
       overflow_perspective="false" /><inkscape:path-effect
       effect="perspective-envelope"
       up_left_point="420.89274,363.74918"
       up_right_point="510.39939,374.47348"
       down_left_point="447.04496,395.56972"
       down_right_point="535.79903,392.37125"
       id="path-effect4"
       is_visible="true"
       lpeversion="1"
       deform_type="perspective"
       horizontal_mirror="false"
       vertical_mirror="false"
       overflow_perspective="false" /><rect
       x="445.68622"
       y="368.87647"
       width="75.861484"
       height="47.413428"
       id="rect2" /><linearGradient
       inkscape:collect="always"
       xlink:href="#linearGradient10"
       id="linearGradient11"
       x1="509.80835"
       y1="307.84222"
       x2="509.80835"
       y2="350.2984"
       gradientUnits="userSpaceOnUse" /><linearGradient
       inkscape:collect="always"
       xlink:href="#linearGradient13"
       id="linearGradient12"
       x1="601.59375"
       y1="389.97809"
       x2="600.97479"
       y2="552.14258"
       gradientUnits="userSpaceOnUse" /></defs><g
     inkscape:groupmode="layer"
     id="layer3"
     inkscape:label="Layer 3"><path
       d="m 408.70697,300.24925 10.41308,29.25939 32.72843,87.20507 2.53024,6.91589 -99.23049,13.1865 -29.11829,-114.219 -21.98594,-77.8668 141.74516,11.42889 c 5.40458,0.43586 8.45486,0.77562 9.2054,1.02381 1.8664,0.52515 3.19801,1.69687 4.00219,3.52156 1.01,2.2918 -0.1075,3.3256 -3.37688,3.09063 l -0.78397,-0.0587 -60.81833,-5.09566 12.01766,34.29014 14.34594,0.57684 42.49311,0.73668 8.76414,0.18562 c 3.15407,0.10515 5.31435,0.41883 6.49906,0.94257 1.25712,0.52515 2.21491,1.52617 2.87663,3.00728 1.23457,2.76344 -0.60175,4.09511 -5.56301,3.98109 l -9.16675,-0.42646 z m 126.37289,-36.89057 3.27725,6.20993 26.93239,51.8983 43.44685,81.65058 -62.322,8.28181 -44.19204,-97.3806 -24.1753,-50.75265 -2.05531,-4.67167 z m 68.18459,5.49769 9.99201,17.03578 16.9543,28.61094 13.38123,22.08732 30.74396,50.50171 5.29239,-0.52456 28.81254,-4.08331 4.93048,-0.6888 c 2.48171,-0.2943 4.43376,0.66678 5.87868,2.88944 1.28521,1.97707 1.32574,3.15267 0.11279,3.52239 -0.252,0.10338 -1.17742,0.29605 -2.78412,0.57919 l -86.94696,11.55407 -22.71868,-41.78845 -12.99084,-23.92065 -13.97023,-25.68285 -20.4341,-36.51726 -4.00618,-7.42542 z m 78.28063,8.12074 36.46593,53.48837 35.19816,50.82285 c 2.17092,0.17388 3.8615,0.18093 5.07827,0.0235 3.47299,-0.44761 6.27361,-1.91228 8.40858,-4.36356 2.09455,-2.40489 3.25463,-5.41669 3.5064,-9.02013 0.14979,-2.30644 -0.15801,-5.29392 -0.91384,-8.9416 -0.71236,-3.59663 -1.71021,-7.03783 -2.99036,-10.33518 -0.74191,-1.89729 -0.7603,-2.86066 -0.0605,-2.89931 1.04596,-0.0587 2.08909,0.62989 3.13528,2.066 1.12437,1.54356 2.25668,4.23398 3.40666,8.10987 1.1605,3.87783 1.90646,7.45203 2.22848,10.71548 0.68893,7.21077 -0.86262,12.62522 -4.76024,16.14749 -2.39596,2.17902 -5.29339,3.52179 -8.6947,4.00236 -5.04926,0.71341 -11.46708,-0.37947 -19.25522,-3.32208 -12.67122,-4.73346 -25.66951,-13.21123 -38.69799,-25.28205 -10.74355,-9.95183 -19.71475,-20.52432 -26.83477,-31.56423 -7.09699,-11.00413 -11.46813,-21.09841 -13.19249,-30.22932 -1.74492,-9.35896 -0.17564,-16.0891 4.52123,-20.32238 3.35567,-2.91652 8.17901,-4.07297 14.43182,-3.53812 10.39997,0.88952 22.22273,6.04257 35.68936,15.43554 6.38504,4.45678 10.25482,7.62437 11.62932,9.51955 0.36948,0.50987 0.54336,0.96688 0.52045,1.3715 -0.0235,0.40531 -0.23027,0.60069 -0.62307,0.58506 -0.65591,-0.0294 -2.10342,-0.97 -4.3406,-2.82999 -6.83929,-5.67145 -13.78231,-10.24519 -20.89469,-13.75577 -7.22481,-3.59634 -13.68475,-5.62991 -19.40818,-6.07752 -1.36639,-0.10691 -2.55138,-0.0411 -3.55381,0.19267 z m 119.65571,34.5308 -13.75946,-17.26992 -5.99764,-7.47817 c -1.53133,-1.93254 -2.45775,-3.22127 -2.78365,-3.87131 -0.32484,-0.6485 -0.17152,-0.94603 0.45819,-0.89375 0.95408,0.0793 2.37351,1.30495 4.26893,3.68739 l 3.15519,4.01023 10.5537,13.3562 17.67048,22.35278 19.5995,24.50091 14.3742,17.97388 c 1.34259,1.68765 2.16592,2.85179 2.46703,3.48919 0.32484,0.63576 0.23144,0.98915 -0.28255,1.05941 -0.53866,0.0734 -1.17771,-0.20736 -1.91621,-0.8433 -0.71459,-0.63875 -1.76572,-1.83367 -3.14979,-3.5803 l -4.69574,-5.97443 -26.6801,-33.80787 -9.45224,-11.92544 -1.4646,-0.0752 -7.6101,-0.32014 -16.97316,0.18151 14.48898,18.90242 30.48285,39.536 -26.0723,3.4647 -47.93264,-65.51596 -11.75332,-15.8586 -10.43657,-14.13282 -2.8932,-3.81386 27.49155,2.21661 2.43144,3.23226 20.35932,26.89856 c 3.0639,0.36185 7.60123,0.59623 13.52015,0.70378 5.30425,0.0963 9.46257,0.0294 12.53218,-0.20442 z"
       id="path6"
       style="font-size:24px;font-family:Broadway;-inkscape-font-specification:Broadway;display:inline;fill:#1a1a1a;fill-opacity:1;stroke-width:5.87416"
       aria-label="FILCH&#10;"
       inkscape:label="path6" /><path
       d="m 455.84278,474.54245 c -1.34392,2.59274 -0.5383,10.53581 -0.5383,10.53581 l -1.16463,27.39889 -0.0919,1.95076 -6.7405,-0.23958 -4.24017,-30.54468 0.96296,-26.58525 22.6114,-3.19615 c 1.07315,-0.15169 1.67643,-0.19195 1.80653,-0.12014 0.33533,0.13309 0.48121,0.62372 0.43737,1.47135 -0.0548,1.05877 -0.41159,1.63233 -1.06926,1.72116 l -0.1567,0.0212 -10.95866,1.17247 c 0,0 -2.12484,10.59756 -0.72836,13.65824 0.48822,1.07005 2.32967,-0.20977 2.32967,-0.20977 l 7.64878,-1.0982 1.71323,-0.23168 c 0.625,-0.0683 1.02959,-0.008 1.21274,0.18021 0.1982,0.18702 0.28094,0.59521 0.24814,1.22422 -0.0609,1.16738 -0.58343,1.80133 -1.56492,1.90237 l -1.74836,0.0913 c 0,0 -13.21934,1.53184 -9.96903,0.89749 1.62495,-0.31714 0,6e-5 0,6e-5 z m 31.47577,-23.60291 -0.67152,9.82111 -1.00259,15.48463 -0.63114,11.17412 -1.27587,23.36875 1.6894,-0.005 10.30203,-0.58216 1.92033,-0.10416 c 0.97205,-0.0295 1.42448,0.49569 1.35474,1.57501 -0.0617,0.95521 -0.35954,1.48525 -0.89271,1.59051 -0.11717,0.0335 -0.49728,0.0735 -1.13924,0.11989 l -27.34677,0.66649 0.9562,-16.71648 0.59626,-10.36064 0.67552,-11.8418 0.87996,-18.2239 0.23221,-3.93706 z m 35.18931,-4.97405 -0.25296,3.51627 -2.09207,27.21744 -2.49505,36.17817 -15.73385,0.38347 2.71244,-38.52426 1.40658,-24.07733 0.1831,-2.39372 z m 19.36809,54.10175 -0.11379,1.40527 -0.74826,9.59418 -0.10076,1.24415 -17.00589,0.41447 0.24643,-2.9504 2.70324,-34.50371 1.13284,-16.70521 0.82619,-11.47964 0.12326,-2.02993 13.10204,-1.85199 c 5.5243,-0.78087 9.7411,-0.95824 12.59179,-0.5181 2.89727,0.44131 5.27516,1.63212 7.12052,3.57665 2.50185,2.6163 4.28309,6.49464 5.33168,11.62514 0.80182,3.92023 1.00358,8.09713 0.60591,12.51739 -0.42823,4.75993 -1.48681,9.3402 -3.16737,13.72896 -1.99055,5.20867 -4.49702,9.2444 -7.50722,12.11771 -2.95363,2.80614 -6.18955,4.27489 -9.70108,4.4281 -1.2916,0.0564 -3.10783,-0.14893 -5.43954,-0.61304 z m 4.39695,-53.93752 -0.28364,3.5024 -2.90372,34.42403 -0.96167,12.59337 c 1.47044,0.62881 3.43495,0.88413 5.90373,0.76302 2.23158,-0.10947 4.4254,-0.98208 6.58164,-2.62692 2.17341,-1.65797 4.10357,-3.95128 5.78612,-6.88519 2.88603,-5.02055 4.63102,-10.79553 5.21144,-17.30458 0.55475,-6.22102 -0.18378,-11.74382 -2.21117,-16.53101 -1.43832,-3.39256 -3.465,-5.72852 -6.06798,-7.00796 -2.58282,-1.26953 -5.97987,-1.61444 -10.1619,-1.04808 z m 44.39575,51.73836 -0.15203,1.52265 -1.00403,10.3918 -0.13452,1.34713 -19.87045,0.48428 0.3251,-3.18718 3.59812,-37.31677 1.53935,-18.0947 1.11449,-12.44565 0.17047,-2.20139 15.36585,-2.17198 c 6.49597,-0.91821 11.45564,-1.16481 14.80419,-0.72246 3.40603,0.44336 6.19201,1.70948 8.34109,3.80352 2.91539,2.81868 4.9639,7.02171 6.13025,12.59757 0.89196,4.26082 1.07164,8.8069 0.54001,13.62248 -0.5723,5.18405 -1.8858,10.17546 -3.9296,14.96019 -2.41922,5.67454 -5.42796,10.07308 -9.01085,13.20801 -3.51203,3.05881 -7.33419,4.66532 -11.45831,4.84526 -1.5159,0.0661 -3.64281,-0.1492 -6.36915,-0.64276 z m 5.87993,-58.54705 -0.38024,3.80788 -3.86851,37.38161 -1.29517,13.65393 c 1.71485,0.67476 4.01478,0.94281 6.9128,0.80064 2.6213,-0.12859 5.21022,-1.08509 7.76721,-2.88021 2.57908,-1.81066 4.88226,-4.31136 6.90411,-7.50828 3.47062,-5.47505 5.60898,-11.76788 6.38467,-18.85429 0.74169,-6.77571 -0.0529,-12.78063 -2.37857,-17.97056 -1.6495,-3.67679 -4.00681,-6.19561 -7.05651,-7.55668 -3.02404,-1.34962 -7.01636,-1.683 -11.93948,-1.01628 z m 56.68544,14.81667 c -0.28411,1.88344 -0.58997,4.16843 -0.91756,6.85311 l -0.44563,3.65205 -4.75666,41.2683 13.86611,-0.65334 10.15797,-0.48881 c 1.68869,-0.0514 2.43882,0.65678 2.24462,2.12348 -0.16167,1.22098 -0.68329,1.92299 -1.56331,2.10658 -0.20537,0.0454 -1.39429,0.11487 -3.55701,0.2081 l -45.18544,1.10125 0.37086,-2.95391 2.19909,-19.13283 2.50593,-20.83906 3.86459,-36.89637 43.93668,-6.2105 c 2.09467,-0.29608 3.28651,-0.40117 3.56659,-0.31371 0.65002,0.16241 0.89632,0.84784 0.7382,2.05524 -0.19745,1.50771 -0.94927,2.34914 -2.25211,2.52512 l -0.31022,0.0419 -21.48164,2.47233 -2.5093,19.21483 4.51858,-0.43069 14.98519,-2.00324 3.38007,-0.4318 c 1.23397,-0.1349 2.02466,-0.0748 2.36915,0.1808 0.37433,0.2526 0.50281,0.82532 0.38525,1.71748 -0.21813,1.65528 -1.29927,2.58222 -3.23585,2.78157 l -3.43493,0.22917 z m 65.52708,39.1922 c 2.70042,2.75076 5.72722,5.0929 9.08822,7.02554 3.42801,1.90282 7.2235,3.3707 11.39749,4.39993 1.0194,0.23764 1.44531,0.89117 1.27594,1.95949 -0.23267,1.4675 -1.136,2.21833 -2.7055,2.25367 -3.55922,0.0802 -8.19378,-1.82497 -13.87166,-5.67674 -4.66222,-3.18642 -9.74491,-8.12753 -15.23705,-14.78994 l -0.38486,2.65191 -1.54025,10.9364 -0.89991,6.20003 -27.59117,0.67245 0.37192,-2.76667 2.80703,-20.22763 3.44484,-24.63022 5.16395,-39.05915 18.90917,-2.67283 c 8.78426,-1.24167 15.50694,-1.85494 20.05318,-1.81778 4.59886,0.0376 8.44868,0.77998 11.5258,2.23459 5.06517,2.35485 8.69804,6.88984 10.85858,13.59855 1.99794,6.2382 2.42129,12.97357 1.27085,20.16422 -1.21823,7.61445 -4.0378,14.8696 -8.41945,21.72883 -6.93073,10.83186 -15.46654,16.72004 -25.51717,17.81535 z m -4.01101,-3.83723 2.31637,-0.048 c 6.73391,-0.32749 12.90575,-3.16054 18.49382,-8.56003 3.5829,-3.42798 6.60343,-7.66107 9.04831,-12.7027 2.29353,-4.65992 3.82381,-9.37951 4.58003,-14.14561 1.29118,-8.13768 0.42175,-15.23441 -2.60235,-21.22856 -2.285,-4.63213 -5.55586,-7.67567 -9.78742,-9.13322 -4.18958,-1.44309 -10.28191,-1.685 -18.18564,-0.75091 l -6.95024,44.89279 -1.71992,11.8526 -0.39638,3.05737 c 1.5719,2.44944 3.30565,4.70463 5.20338,6.76617 z"
       id="path1"
       style="font-size:62.7381px;font-family:Broadway;-inkscape-font-specification:Broadway;display:inline;fill:#1a1a1a;fill-opacity:1;stroke-width:2.61409"
       aria-label="FLIPPER&#10;"
       inkscape:path-effect="#path-effect3"
       inkscape:original-d="m 469.46405,471.71391 c -1.77466,1.73446 -0.0613,7.41339 -0.0613,7.41339 l 0.1838,19.57502 v 1.40916 l -10.05625,-0.29623 -8.44659,-22.46471 -0.24507,-19.05425 h 32.47187 c 1.47042,0 2.29753,0.0306 2.48134,0.0919 0.46972,0.12254 0.70458,0.46973 0.70458,1.04156 0,0.71479 -0.4493,1.07218 -1.34789,1.07218 h -0.21444 l -15.34755,-0.21444 c 0,0 -2.35436,7.23343 -0.12254,9.49649 0.77834,0.78924 3.33909,0.0306 3.33909,0.0306 l 10.72185,-0.18381 2.3588,-0.0306 c 0.85775,0 1.41937,0.0715 1.68486,0.21444 0.28592,0.14295 0.42888,0.42887 0.42888,0.85774 0,0.79648 -0.67395,1.19472 -2.02184,1.19472 l -2.42007,-0.0613 c 0,0 -18.78394,0.11966 -14.09153,-0.0919 2.323,-0.10473 0,4e-5 0,4e-5 z m 41.14125,-13.41762 -0.12254,6.40248 -0.12253,10.20106 0.0306,7.44403 0.12254,15.77642 2.20563,0.0306 13.11129,-0.18381 2.38943,-0.0306 c 1.20493,0 1.8074,0.35739 1.8074,1.07218 0,0.6331 -0.32676,0.98028 -0.98028,1.04155 -0.14296,0.0204 -0.61268,0.0408 -1.40916,0.0613 h -35.87222 l 0.0919,-11.64086 0.0613,-7.13768 0.0613,-8.08733 -0.12254,-12.31481 0.0306,-2.63451 z m 41.90709,0 v 2.14437 l -0.15317,16.78734 0.12253,22.88348 h -18.71727 l 0.21443,-25.02784 -0.21443,-15.28629 0.0306,-1.50106 z m 25.76305,34.3099 v 0.85775 l 0.0306,5.88169 v 0.76585 H 559.6194 l 0.0306,-1.86866 0.15317,-21.53559 -0.12254,-10.2317 -0.0306,-6.95388 -0.0306,-1.22536 h 13.99966 c 5.71831,0 10.0479,0.24507 12.98875,0.73522 2.96127,0.49014 5.44261,1.36831 7.44402,2.63451 2.69577,1.69507 4.77887,4.05387 6.2493,7.07641 1.12324,2.30775 1.68486,4.72783 1.68486,7.26022 0,2.73663 -0.6331,5.35071 -1.8993,7.84226 -1.51127,2.98169 -3.65563,5.27923 -6.4331,6.89262 -2.75705,1.59296 -5.95318,2.38944 -9.58839,2.38944 -1.34789,0 -3.27783,-0.17359 -5.7898,-0.52078 z m 0.0306,-32.2268 v 2.05247 l -0.12254,20.4634 0.0613,7.62783 c 1.61338,0.42887 3.70669,0.64331 6.27993,0.64331 2.30775,0 4.49297,-0.45951 6.55565,-1.37852 2.06267,-0.91902 3.8088,-2.21585 5.23838,-3.8905 2.43029,-2.83873 3.64543,-6.13698 3.64543,-9.89473 0,-3.57395 -1.20493,-6.81092 -3.61479,-9.71093 -1.7155,-2.06267 -3.93135,-3.56373 -6.64755,-4.50317 -2.7162,-0.93944 -6.20846,-1.40916 -10.47677,-1.40916 z m 47.75814,32.2268 v 0.85775 l 0.0306,5.88169 v 0.76585 h -18.68664 l 0.0306,-1.86866 0.15317,-21.53559 -0.12254,-10.2317 -0.0306,-6.95388 -0.0306,-1.22536 h 13.99966 c 5.71831,0 10.0479,0.24507 12.98875,0.73522 2.96127,0.49014 5.44261,1.36831 7.44402,2.63451 2.69577,1.69507 4.77887,4.05387 6.2493,7.07641 1.12324,2.30775 1.68486,4.72783 1.68486,7.26022 0,2.73663 -0.6331,5.35071 -1.8993,7.84226 -1.51127,2.98169 -3.65563,5.27923 -6.4331,6.89262 -2.75705,1.59296 -5.95318,2.38944 -9.58839,2.38944 -1.34789,0 -3.27783,-0.17359 -5.7898,-0.52078 z m 0.0306,-32.2268 v 2.05247 l -0.12254,20.4634 0.0613,7.62783 c 1.61338,0.42887 3.70669,0.64331 6.27994,0.64331 2.30775,0 4.49296,-0.45951 6.55564,-1.37852 2.06267,-0.91902 3.8088,-2.21585 5.23838,-3.8905 2.43029,-2.83873 3.64543,-6.13698 3.64543,-9.89473 0,-3.57395 -1.20493,-6.81092 -3.61479,-9.71093 -1.7155,-2.06267 -3.93135,-3.56373 -6.64755,-4.50317 -2.7162,-0.93944 -6.20846,-1.40916 -10.47677,-1.40916 z m 47.72752,11.33452 c -0.0409,0.93944 -0.0613,2.0831 -0.0613,3.43099 v 1.83803 l 0.21444,21.13735 10.38487,-0.12253 7.35212,-0.0919 c 1.20493,0 1.80739,0.36761 1.80739,1.10282 0,0.61268 -0.30634,0.95986 -0.91901,1.04155 -0.14296,0.0204 -0.9905,0.0408 -2.54261,0.0613 h -34.80004 l 0.0306,-1.59296 0.0306,-10.2317 0.12253,-10.96691 -0.24507,-19.02362 h 32.47187 c 1.45,0 2.27711,0.0306 2.48134,0.0919 0.46972,0.12254 0.70458,0.46973 0.70458,1.04156 0,0.71479 -0.4493,1.07218 -1.34789,1.07218 h -0.21444 l -15.34755,-0.21444 -0.12253,9.49649 3.33908,0.0306 10.72185,-0.18381 2.3588,-0.0306 c 0.85775,0 1.41937,0.0715 1.68486,0.21444 0.28592,0.14295 0.42888,0.42887 0.42888,0.85774 0,0.79648 -0.67395,1.19472 -2.02184,1.19472 l -2.42007,-0.0613 z m 48.8916,21.47432 c 1.96057,1.34789 4.0743,2.50177 6.34121,3.46163 2.28733,0.93943 4.73803,1.67464 7.35212,2.20563 0.6331,0.12254 0.94965,0.42888 0.94965,0.91902 0,0.67395 -0.46972,1.01092 -1.40916,1.01092 -2.14437,0 -5.15669,-0.93944 -9.03698,-2.81832 -3.22677,-1.57253 -6.92325,-4.00282 -11.08945,-7.29085 v 1.25599 l 0.0306,5.20775 v 2.97148 h -18.656 v -1.37852 l 0.0613,-9.98663 0.0919,-11.9472 -0.0613,-18.50284 h 12.3148 c 5.51409,0 9.6803,0.15317 12.49861,0.45951 2.81831,0.30634 5.21796,0.87817 7.19895,1.7155 3.22676,1.34789 5.77958,3.56373 7.65846,6.64754 1.73591,2.85916 2.60387,5.86128 2.60387,9.00635 0,3.3493 -0.97007,6.50458 -2.91021,9.46585 -3.12465,4.75846 -7.77079,7.29086 -13.9384,7.59719 z m -2.91021,-1.89929 1.47042,0.0306 c 4.20705,0 7.76057,-1.1743 10.66058,-3.52289 1.83803,-1.47043 3.24718,-3.30846 4.22747,-5.51409 0.91901,-2.02183 1.37852,-4.08451 1.37852,-6.18804 0,-3.57395 -1.16409,-6.77008 -3.49226,-9.58839 -1.77676,-2.18521 -4.00282,-3.72712 -6.67817,-4.62571 -2.67536,-0.89859 -6.44332,-1.37852 -11.30389,-1.43979 l -0.2757,20.52467 v 5.54473 l 0.0306,1.43979 c 1.24577,1.20493 2.57324,2.31796 3.9824,3.33909 z"
       transform="matrix(1.5875614,0,0,1.6005364,-348.90587,-257.20276)"
       sodipodi:nodetypes="cccccccscssccsccccsccsccccccccsccccccccccccccccccccccccccccscccsccsscccccsscscsscccccccccccscccsccsscccccsscscssccsccccscccccccscsscccccccscccsccssccccccccccssccscssccccscsccccscc" /></g><g
     inkscape:label="Layer 1"
     inkscape:groupmode="layer"
     id="layer1"
     style="display:inline"><path
       d="m 495.05651,325.1221 1.78811,4.89461 5.65711,14.68391 0.43968,1.17057 -17.41015,2.39744 -4.9767,-19.5481 -3.72305,-13.14559 24.57316,2.37218 c 0.91671,0.0885 1.43349,0.15373 1.56065,0.19668 0.31609,0.0917 0.54196,0.2874 0.67897,0.58819 0.1721,0.37786 -0.0163,0.54364 -0.56985,0.49543 l -0.13281,-0.0116 -10.39718,-1.0253 2.05416,5.71011 2.46996,0.1283 7.25241,0.21668 1.48401,0.0499 c 0.53313,0.0242 0.89821,0.0805 1.09865,0.16914 0.2126,0.089 0.37513,0.2555 0.48818,0.50027 0.21096,0.45677 -0.0975,0.67207 -0.9356,0.64342 l -1.55198,-0.0887 z m 21.30911,-5.73072 0.55376,1.01401 4.56064,8.48813 7.3809,13.40845 -10.30021,1.41838 -7.58208,-16.14551 -4.11985,-8.36695 -0.34984,-0.76803 z m 11.16621,1.07793 1.67222,2.75821 2.83896,4.63682 2.24091,3.58336 5.15394,8.20337 0.84598,-0.0863 4.57385,-0.66558 0.77833,-0.11166 c 0.39155,-0.0477 0.7055,0.1074 0.9457,0.46616 0.21367,0.31913 0.22625,0.50904 0.0362,0.56904 -0.0393,0.0167 -0.18483,0.0481 -0.4378,0.0943 l -13.91427,1.91604 -3.85142,-6.84575 -2.19848,-3.91174 -2.36097,-4.19435 -3.445,-5.95537 -0.67531,-1.20925 z m 12.56108,1.49877 6.01237,8.57933 5.80202,8.15643 c 0.34073,0.0278 0.60518,0.0289 0.79449,0.004 0.53989,-0.0719 0.96825,-0.30671 1.28649,-0.6992 0.31184,-0.38461 0.47427,-0.86595 0.49173,-1.44151 0.009,-0.36815 -0.0565,-0.84491 -0.19584,-1.42686 -0.13226,-0.57346 -0.30787,-1.12205 -0.52644,-1.64771 -0.12654,-0.3024 -0.13511,-0.45563 -0.0266,-0.46122 0.16213,-0.008 0.32822,0.10182 0.49923,0.33097 0.1838,0.24628 0.37573,0.67501 0.57763,1.29257 0.20365,0.61816 0.34118,1.18808 0.41107,1.70861 0.15106,1.15124 -0.057,2.0167 -0.64227,2.5807 -0.36024,0.34947 -0.80417,0.56525 -1.33243,0.64297 -0.7853,0.11553 -1.79682,-0.059 -3.03567,-0.53124 -2.01986,-0.76139 -4.11647,-2.12825 -6.23999,-4.0765 -1.7532,-1.60818 -3.22903,-3.31609 -4.41258,-5.09736 -1.17943,-1.77507 -1.91981,-3.39912 -2.23338,-4.86243 -0.31735,-1.49758 -0.0955,-2.56631 0.63344,-3.22817 0.52026,-0.45478 1.2799,-0.62582 2.27191,-0.52482 1.64606,0.16758 3.53162,1.01231 5.69171,2.52906 1.02267,0.7186 1.64447,1.22757 1.86933,1.53013 0.0605,0.0814 0.0901,0.15405 0.0886,0.21804 -0.001,0.0641 -0.0328,0.0946 -0.0943,0.0914 -0.10268,-0.005 -0.33403,-0.1576 -0.69379,-0.45644 -1.10034,-0.91173 -2.2124,-1.65074 -3.34712,-2.22265 -1.15442,-0.58656 -2.18251,-0.92444 -3.08852,-1.00955 -0.21651,-0.0203 -0.40365,-0.0132 -0.56119,0.0217 z m 18.82064,5.69371 -2.21973,-2.73444 -0.96753,-1.18447 c -0.24721,-0.3061 -0.39749,-0.51002 -0.45155,-0.61255 -0.0539,-0.10229 -0.0321,-0.14852 0.0651,-0.1389 0.14717,0.0146 0.3728,0.20969 0.67859,0.58691 l 0.50926,0.63484 1.70277,2.11407 2.84985,3.53672 3.15732,3.87481 2.3144,2.84109 c 0.21618,0.26669 0.34969,0.45064 0.40006,0.55133 0.054,0.10043 0.0424,0.15622 -0.0352,0.16723 -0.0813,0.0115 -0.18042,-0.033 -0.29725,-0.13352 -0.11323,-0.10102 -0.28164,-0.28995 -0.50466,-0.56608 l -0.75706,-0.94461 -4.3022,-5.3476 -1.52458,-1.88729 -0.22479,-0.014 -1.16908,-0.0617 -2.61125,0.003 2.3506,3.00227 4.94166,6.27687 -3.98606,0.5489 -7.82597,-10.44378 -1.91817,-2.52871 -1.70372,-2.25367 -0.47178,-0.6084 4.28971,0.41411 0.39503,0.51357 3.30619,4.27341 c 0.47505,0.062 1.17597,0.10618 2.08772,0.13258 0.81571,0.0236 1.45338,0.0193 1.92243,-0.0121 z"
       id="path16"
       style="font-size:24px;font-family:Broadway;-inkscape-font-specification:Broadway;fill:#00ff00;fill-opacity:1"
       aria-label="FILCH&#10;"
       transform="matrix(6.0471688,0,0,6.0771562,-2577.455,-1681.7753)"
       inkscape:original-d="m 482.61865,327.66858 -0.0234,2.83594 0.0703,7.48828 v 0.53906 h -7.16016 l 0.082,-8.70703 -0.0937,-7.28906 h 12.42188 q 0.84375,0 0.94922,0.0351 0.26953,0.0703 0.26953,0.39844 0,0.41016 -0.51563,0.41016 h -0.082 l -5.87109,-0.082 -0.0469,3.63281 1.27735,0.0117 4.10156,-0.0703 0.90234,-0.0117 q 0.49219,0 0.64453,0.082 0.16407,0.082 0.16407,0.32812 0,0.45703 -0.77344,0.45703 l -0.92578,-0.0234 z m 15.70313,-5.13281 v 0.82031 l -0.0586,6.42187 0.0469,8.75391 h -7.16016 l 0.082,-9.57422 -0.082,-5.84765 0.0117,-0.57422 z m 9.92578,0 -0.0469,2.44922 -0.0469,3.90234 0.0117,2.84766 0.0469,6.03515 0.84375,0.0117 5.01563,-0.0703 0.91406,-0.0117 q 0.69141,0 0.69141,0.41016 0,0.36328 -0.375,0.39843 -0.082,0.0117 -0.53907,0.0234 h -13.72265 l 0.0351,-4.45312 0.0234,-2.73047 0.0234,-3.09375 -0.0469,-4.71094 0.0117,-1.00781 z m 14.13281,0.3164 -0.0586,8.3086 0.0586,7.05468 q 0.60938,0.082 1.00781,0.082 1.14844,0 2.35547,-0.41016 1.20703,-0.41016 2.13281,-1.11328 0.59766,-0.45703 1.23047,-1.21875 0.64453,-0.76172 1.03125,-1.48828 0.22266,-0.42188 0.48047,-0.42188 0.38672,0 0.38672,0.32813 0,0.35156 -0.58594,1.19531 -0.57422,0.83203 -1.26562,1.5 -1.5,1.44141 -3.52735,2.00391 -1.21875,0.33984 -2.34375,0.33984 -1.64062,0 -3.29296,-0.70313 -2.64844,-1.11328 -4.03125,-3.52734 -1.14844,-2.00391 -1.14844,-4.25391 0,-2.29687 1.19531,-4.33593 1.27734,-2.16797 3.60938,-3.31641 1.69921,-0.82031 3.66796,-0.82031 3.375,0 5.83594,2.28515 1.17188,1.08985 1.17188,1.57032 0,0.1289 -0.11719,0.23437 -0.11719,0.10547 -0.25781,0.10547 -0.23438,0 -0.5625,-0.45703 -1.00782,-1.39453 -2.66016,-2.20313 -1.65234,-0.82031 -3.49219,-0.82031 -0.43359,0 -0.82031,0.082 z m 24.99609,5.19141 -0.0234,-3.29297 -0.0234,-1.46484 q 0,-0.57422 0.0937,-0.77344 0.0937,-0.19922 0.38672,-0.19922 0.44531,0 0.44531,0.71484 l -0.0117,0.79688 -0.0234,2.60156 -0.0351,4.1836 0.0351,4.35937 0.0234,3.05859 q 0,0.42188 -0.0937,0.57422 -0.082,0.15235 -0.33984,0.15235 -0.26953,0 -0.375,-0.16407 -0.0937,-0.16406 -0.0937,-0.59765 l 0.0117,-0.9961 0.0352,-5.88281 v -2.17969 l -0.44531,-0.0117 -2.28516,-0.0469 -5.02734,0.0586 0.0117,3.23438 0.0703,6.36328 h -7.18359 l 0.0586,-10.16016 -0.0234,-2.68359 -0.0117,-2.47266 -0.0234,-0.67968 h 7.18359 l -0.0117,0.60937 -0.0586,4.89844 q 1.19531,0.082 3.79687,0.082 2.39063,0 3.9375,-0.082 z"
       inkscape:path-effect="#path-effect17"
       inkscape:label="path16" /><path
       d="m 455.72363,474.73563 -0.57099,10.56411 -1.24011,27.21528 -0.0965,1.92365 -12.20428,0.30526 1.44483,-30.88841 0.97361,-26.79712 22.51921,-3.20131 c 1.06863,-0.15192 1.66906,-0.19156 1.79798,-0.11843 0.33264,0.1358 0.47429,0.63417 0.42473,1.49432 -0.0619,1.07389 -0.42058,1.65481 -1.07492,1.74366 l -0.1559,0.0212 -10.90276,1.16867 -0.77603,13.79663 2.31003,-0.20833 7.58549,-1.09619 1.69888,-0.23112 c 0.61964,-0.068 1.02004,-0.007 1.20015,0.18302 0.19502,0.18856 0.2741,0.59958 0.23719,1.23261 -0.0685,1.17429 -0.59015,1.81116 -1.56238,1.91161 l -1.73138,0.0897 z m 31.4135,-23.80527 -0.78012,9.95306 -1.16677,15.59429 -0.74544,11.1791 -1.50257,23.18027 1.65463,-0.006 10.09253,-0.57774 1.88061,-0.10336 c 0.95154,-0.0294 1.38676,0.48817 1.30326,1.55178 -0.0739,0.94085 -0.37253,1.46285 -0.89529,1.56671 -0.11502,0.0331 -0.48722,0.0726 -1.11553,0.11856 l -26.77322,0.66965 1.05837,-16.5371 0.66393,-10.31824 0.75711,-11.85842 1.01531,-18.38679 0.26244,-3.99419 z m 35.02666,-4.97936 -0.32281,3.57275 -2.61171,27.4443 -3.13862,35.91302 -15.37573,0.38457 3.25401,-38.28134 1.77896,-24.29938 0.22099,-2.43167 z m 17.85178,54.28835 -0.14581,1.38953 -0.96489,9.46113 -0.12842,1.22364 -16.59296,0.41503 0.30017,-2.90438 3.36697,-34.27993 1.47689,-16.80808 1.06934,-11.63139 0.16708,-2.06374 13.03708,-1.85334 c 5.49635,-0.78136 9.67992,-0.95157 12.49155,-0.49673 2.85645,0.45594 5.17512,1.67234 6.94238,3.65196 2.3934,2.66 4.03225,6.59184 4.90598,11.77814 0.66662,3.95357 0.73355,8.15621 0.20368,12.59329 -0.56929,4.76725 -1.74968,9.34346 -3.53084,13.71841 -2.1053,5.18065 -4.67554,9.1857 -7.70025,12.03249 -2.96402,2.777 -6.16439,4.22914 -9.59826,4.38046 -1.26322,0.0557 -3.03252,-0.14738 -5.2997,-0.60649 z m 5.70257,-54.06697 -0.37309,3.5548 -3.74635,34.61252 -1.25629,12.51622 c 1.42257,0.6232 3.33712,0.87638 5.75391,0.75686 2.1843,-0.10802 4.3522,-0.97177 6.5054,-2.60108 2.17174,-1.64337 4.12527,-3.91871 5.85716,-6.83333 2.97563,-4.99651 4.86181,-10.75943 5.63163,-17.27564 0.73807,-6.24742 0.18197,-11.81195 -1.67038,-16.65075 -1.31714,-3.43669 -3.24998,-5.80895 -5.78641,-7.11297 -2.51894,-1.29503 -5.87192,-1.6533 -10.02821,-1.08744 z m 41.97493,51.89776 -0.20351,1.5042 -1.35235,10.23606 -0.17904,1.32315 -19.32533,0.48336 0.41573,-3.13361 4.71143,-37.05536 2.11331,-18.21456 1.51969,-12.62304 0.24339,-2.24096 15.28149,-2.1724 c 6.45954,-0.91829 11.37257,-1.15605 14.66358,-0.6961 3.34608,0.46093 6.04293,1.75752 8.07306,3.89322 2.751,2.87064 4.58221,7.13715 5.48055,12.77907 0.68539,4.30032 0.658,8.87678 -0.0781,13.71209 -0.79044,5.19251 -2.29465,10.17884 -4.49918,14.94686 -2.60362,5.64107 -5.72128,10.00298 -9.34019,13.10616 -3.54234,3.02405 -7.32543,4.61056 -11.34638,4.78776 -1.47823,0.0652 -3.54106,-0.14785 -6.17819,-0.6359 z m 7.97567,-58.69829 -0.5236,3.86945 -5.221,37.60214 -1.76834,13.56327 c 1.64683,0.66842 3.87823,0.93427 6.70723,0.79437 2.55847,-0.12653 5.11774,-1.07227 7.68026,-2.84876 2.58645,-1.79311 4.93432,-4.27229 7.03949,-7.44615 3.62011,-5.4461 5.98218,-11.72426 7.05155,-18.81888 1.02597,-6.80668 0.51135,-12.86094 -1.54769,-18.11213 -1.46403,-3.72911 -3.67879,-6.29105 -6.62894,-7.68147 -2.92807,-1.38001 -6.85649,-1.72952 -11.74582,-1.06386 z m 55.08817,15.12786 c -0.37709,1.89607 -0.79621,4.19414 -1.25692,6.89093 l -0.62574,3.66285 -6.72394,40.93976 13.44608,-0.64377 9.84404,-0.48128 c 1.63428,-0.0507 2.31921,0.64428 2.04956,2.08304 -0.22433,1.19694 -0.76694,1.88494 -1.62644,2.06504 -0.20073,0.0446 -1.35204,0.113 -3.44472,0.20492 l -43.7464,1.09418 0.48937,-2.89971 2.98912,-18.88284 3.39592,-20.76813 5.53349,-37.29711 43.66172,-6.2069 c 2.08102,-0.29584 3.2613,-0.39933 3.53194,-0.30914 0.63049,0.168 0.83192,0.86891 0.60382,2.10112 -0.28463,1.53764 -1.07466,2.39336 -2.36703,2.56885 l -0.30773,0.0418 -21.28931,2.45653 -3.49087,19.48199 4.45331,-0.42526 14.79694,-1.9903 3.33598,-0.42862 c 1.21649,-0.13351 1.98734,-0.0711 2.30962,0.18779 0.35163,0.25586 0.44359,0.83423 0.27583,1.73421 -0.31107,1.66874 -1.42326,2.60068 -3.32949,2.79763 l -3.37423,0.22402 z m 61.371,39.1226 c 2.41986,2.70925 5.17825,5.01276 8.28273,6.91114 3.16723,1.86682 6.7146,3.30528 10.6533,4.31281 0.96242,0.2325 1.32467,0.87204 1.08533,1.91717 -0.32857,1.43478 -1.24939,2.16871 -2.75851,2.2037 -3.42293,0.0794 -7.74239,-1.78208 -12.93883,-5.55321 -4.27447,-3.12646 -8.84726,-7.98607 -13.71731,-14.55991 l -0.54383,2.61854 -2.19013,10.76337 -1.26221,6.07678 -26.6276,0.66601 0.51693,-2.71155 3.88569,-19.9351 4.80939,-24.53961 7.45212,-39.52676 18.7814,-2.66994 c 8.72358,-1.24014 15.37528,-1.84438 19.84001,-1.79067 4.51461,0.0543 8.23976,0.82647 11.15087,2.32288 4.78868,2.41969 7.99993,7.04997 9.59656,13.86889 1.46879,6.31904 1.36146,13.11455 -0.30994,20.34089 -1.76355,7.62476 -5.04453,14.86141 -9.79609,21.67892 -7.48508,10.72375 -16.13754,16.5298 -25.90993,17.60566 z m -3.61782,-3.78658 2.24143,-0.0462 c 6.52684,-0.32003 12.6838,-3.11506 18.46563,-8.45421 3.71143,-3.3958 6.94283,-7.59736 9.68238,-12.61319 2.57053,-4.64633 4.40994,-9.36361 5.50456,-14.13957 1.87482,-8.18014 1.56909,-15.34548 -0.92782,-21.42429 -1.88426,-4.71096 -4.85837,-7.81827 -8.8972,-9.31688 -4.00306,-1.48533 -9.96443,-1.75209 -17.79046,-0.8244 l -9.83426,45.29614 -2.44927,11.795 -0.58373,3.03157 c 1.36147,2.42675 2.8904,4.65835 4.58871,6.69602 z"
       id="path17"
       style="font-size:62.7381px;font-family:Broadway;-inkscape-font-specification:Broadway;fill:#00ff00;fill-opacity:1;stroke-width:2.61409"
       aria-label="FLIPPER&#10;"
       inkscape:path-effect="#path-effect19"
       inkscape:original-d="m 469.46405,471.71391 -0.0613,7.41339 0.1838,19.57502 v 1.40916 h -18.71727 l 0.21443,-22.76094 -0.24507,-19.05425 h 32.47187 q 2.20563,0 2.48134,0.0919 0.70458,0.18381 0.70458,1.04156 0,1.07218 -1.34789,1.07218 h -0.21444 l -15.34755,-0.21444 -0.12254,9.49649 3.33909,0.0306 10.72185,-0.18381 2.3588,-0.0306 q 1.28662,0 1.68486,0.21444 0.42888,0.21443 0.42888,0.85774 0,1.19472 -2.02184,1.19472 l -2.42007,-0.0613 z m 41.14125,-13.41762 -0.12254,6.40248 -0.12253,10.20106 0.0306,7.44403 0.12254,15.77642 2.20563,0.0306 13.11129,-0.18381 2.38943,-0.0306 q 1.8074,0 1.8074,1.07218 0,0.94965 -0.98028,1.04155 -0.21444,0.0306 -1.40916,0.0613 h -35.87222 l 0.0919,-11.64086 0.0613,-7.13768 0.0613,-8.08733 -0.12254,-12.31481 0.0306,-2.63451 z m 41.90709,0 v 2.14437 l -0.15317,16.78734 0.12253,22.88348 h -18.71727 l 0.21443,-25.02784 -0.21443,-15.28629 0.0306,-1.50106 z m 25.76305,34.3099 v 0.85775 l 0.0306,5.88169 v 0.76585 H 559.6194 l 0.0306,-1.86866 0.15317,-21.53559 -0.12254,-10.2317 -0.0306,-6.95388 -0.0306,-1.22536 h 13.99966 q 8.57747,0 12.98875,0.73522 4.4419,0.73521 7.44402,2.63451 4.04366,2.5426 6.2493,7.07641 1.68486,3.46163 1.68486,7.26022 0,4.10494 -1.8993,7.84226 -2.2669,4.47254 -6.4331,6.89262 -4.13557,2.38944 -9.58839,2.38944 -2.02184,0 -5.7898,-0.52078 z m 0.0306,-32.2268 v 2.05247 l -0.12254,20.4634 0.0613,7.62783 q 2.42007,0.64331 6.27993,0.64331 3.46163,0 6.55565,-1.37852 3.09401,-1.37853 5.23838,-3.8905 3.64543,-4.2581 3.64543,-9.89473 0,-5.36092 -3.61479,-9.71093 -2.57325,-3.09401 -6.64755,-4.50317 -4.0743,-1.40916 -10.47677,-1.40916 z m 47.75814,32.2268 v 0.85775 l 0.0306,5.88169 v 0.76585 h -18.68664 l 0.0306,-1.86866 0.15317,-21.53559 -0.12254,-10.2317 -0.0306,-6.95388 -0.0306,-1.22536 h 13.99966 q 8.57747,0 12.98875,0.73522 4.4419,0.73521 7.44402,2.63451 4.04366,2.5426 6.2493,7.07641 1.68486,3.46163 1.68486,7.26022 0,4.10494 -1.8993,7.84226 -2.2669,4.47254 -6.4331,6.89262 -4.13557,2.38944 -9.58839,2.38944 -2.02184,0 -5.7898,-0.52078 z m 0.0306,-32.2268 v 2.05247 l -0.12254,20.4634 0.0613,7.62783 q 2.42007,0.64331 6.27994,0.64331 3.46162,0 6.55564,-1.37852 3.09401,-1.37853 5.23838,-3.8905 3.64543,-4.2581 3.64543,-9.89473 0,-5.36092 -3.61479,-9.71093 -2.57325,-3.09401 -6.64755,-4.50317 -4.0743,-1.40916 -10.47677,-1.40916 z m 47.72752,11.33452 q -0.0613,1.40916 -0.0613,3.43099 v 1.83803 l 0.21444,21.13735 10.38487,-0.12253 7.35212,-0.0919 q 1.80739,0 1.80739,1.10282 0,0.91902 -0.91901,1.04155 -0.21444,0.0306 -2.54261,0.0613 h -34.80004 l 0.0306,-1.59296 0.0306,-10.2317 0.12253,-10.96691 -0.24507,-19.02362 h 32.47187 q 2.175,0 2.48134,0.0919 0.70458,0.18381 0.70458,1.04156 0,1.07218 -1.34789,1.07218 h -0.21444 l -15.34755,-0.21444 -0.12253,9.49649 3.33908,0.0306 10.72185,-0.18381 2.3588,-0.0306 q 1.28662,0 1.68486,0.21444 0.42888,0.21443 0.42888,0.85774 0,1.19472 -2.02184,1.19472 l -2.42007,-0.0613 z m 48.8916,21.47432 q 2.94085,2.02184 6.34121,3.46163 3.43099,1.40915 7.35212,2.20563 0.94965,0.18381 0.94965,0.91902 0,1.01092 -1.40916,1.01092 -3.21655,0 -9.03698,-2.81832 -4.84015,-2.3588 -11.08945,-7.29085 v 1.25599 l 0.0306,5.20775 v 2.97148 h -18.656 v -1.37852 l 0.0613,-9.98663 0.0919,-11.9472 -0.0613,-18.50284 h 12.3148 q 8.27114,0 12.49861,0.45951 4.22747,0.45951 7.19895,1.7155 4.84014,2.02183 7.65846,6.64754 2.60387,4.28874 2.60387,9.00635 0,5.02395 -2.91021,9.46585 -4.68698,7.13769 -13.9384,7.59719 z m -2.91021,-1.89929 1.47042,0.0306 q 6.31057,0 10.66058,-3.52289 2.75704,-2.20564 4.22747,-5.51409 1.37852,-3.03275 1.37852,-6.18804 0,-5.36092 -3.49226,-9.58839 -2.66514,-3.27782 -6.67817,-4.62571 -4.01304,-1.34789 -11.30389,-1.43979 l -0.2757,20.52467 v 5.54473 l 0.0306,1.43979 q 1.86866,1.80739 3.9824,3.33909 z"
       transform="matrix(1.5875614,0,0,1.6005364,-348.90588,-257.20277)" /></g><g
     inkscape:groupmode="layer"
     id="layer2"
     inkscape:label="Layer 2"
     style="display:inline"><path
       d="m 494.65206,325.03775 1.77269,4.98103 5.57159,14.84553 0.43074,1.17734 -16.8927,2.24483 -4.95701,-19.4443 -3.74282,-13.25581 24.13027,1.94562 c 0.92006,0.0742 1.43933,0.13204 1.5671,0.17429 0.31773,0.0894 0.54442,0.28887 0.68132,0.5995 0.17194,0.39015 -0.0183,0.56614 -0.57487,0.52614 l -0.13346,-0.01 -10.35353,-0.86747 2.04585,5.83745 2.44221,0.0982 7.2339,0.12541 1.49198,0.0316 c 0.53694,0.0179 0.9047,0.0713 1.10638,0.16046 0.21401,0.0894 0.37706,0.25981 0.48971,0.51195 0.21017,0.47044 -0.10244,0.69714 -0.94703,0.67773 l -1.56052,-0.0726 z m 21.51334,-6.28014 0.55791,1.05716 4.58489,8.83501 7.39626,13.89995 -10.60951,1.40987 -7.52312,-16.57778 -4.11553,-8.63998 -0.34989,-0.79529 z m 11.60754,0.93591 1.70101,2.90012 2.88625,4.87064 2.27798,3.76008 5.23376,8.59726 0.90096,-0.0893 4.90496,-0.69513 0.83935,-0.11726 c 0.42248,-0.0501 0.75479,0.11351 1.00077,0.49189 0.21879,0.33657 0.22569,0.5367 0.0192,0.59964 -0.0429,0.0176 -0.20044,0.0504 -0.47396,0.0986 l -14.80159,1.96693 -3.86756,-7.11394 -2.21152,-4.07218 -2.37825,-4.37217 -3.47864,-6.21659 -0.682,-1.26408 z m 13.32626,1.38245 6.20785,9.1057 5.99203,8.65193 c 0.36957,0.0296 0.65737,0.0308 0.86451,0.004 0.59123,-0.0762 1.068,-0.32554 1.43145,-0.74284 0.35657,-0.4094 0.55406,-0.92212 0.59692,-1.53556 0.0255,-0.39264 -0.0269,-0.90122 -0.15557,-1.52219 -0.12127,-0.61228 -0.29114,-1.1981 -0.50907,-1.75943 -0.1263,-0.32299 -0.12943,-0.48699 -0.0103,-0.49357 0.17806,-0.01 0.35564,0.10723 0.53374,0.35171 0.19141,0.26277 0.38417,0.72078 0.57994,1.3806 0.19756,0.66015 0.32455,1.26861 0.37937,1.82417 0.11728,1.22754 -0.14685,2.14928 -0.81037,2.7489 -0.40788,0.37095 -0.90113,0.59954 -1.48016,0.68135 -0.85957,0.12145 -1.95212,-0.0646 -3.27795,-0.56554 -2.15711,-0.80581 -4.3699,-2.24904 -6.58783,-4.30394 -1.82895,-1.69417 -3.35618,-3.494 -4.56827,-5.3734 -1.20817,-1.87331 -1.9523,-3.59173 -2.24585,-5.14615 -0.29705,-1.59324 -0.0299,-2.73896 0.76968,-3.45962 0.57126,-0.4965 1.39237,-0.69337 2.45683,-0.60232 1.77046,0.15143 3.78313,1.02867 6.07565,2.6277 1.08697,0.75871 1.74575,1.29795 1.97974,1.62058 0.0629,0.0868 0.0925,0.1646 0.0886,0.23348 -0.004,0.069 -0.0392,0.10226 -0.10607,0.0996 -0.11166,-0.005 -0.35808,-0.16513 -0.73893,-0.48177 -1.1643,-0.96549 -2.34626,-1.74411 -3.55705,-2.34174 -1.22993,-0.61223 -2.32965,-0.95842 -3.30399,-1.03462 -0.23261,-0.0182 -0.43434,-0.007 -0.60499,0.0328 z m 20.36983,5.87842 -2.34237,-2.93998 -1.02102,-1.27306 c -0.26069,-0.32899 -0.4184,-0.54838 -0.47388,-0.65904 -0.0553,-0.1104 -0.0292,-0.16105 0.078,-0.15215 0.16242,0.0135 0.40406,0.22215 0.72673,0.62773 l 0.53713,0.68269 1.79663,2.27372 3.00817,3.80527 3.33656,4.17096 2.44702,3.05982 c 0.22856,0.2873 0.36872,0.48548 0.41998,0.59399 0.0553,0.10823 0.0394,0.16839 -0.0481,0.18035 -0.0917,0.0125 -0.20049,-0.0353 -0.32621,-0.14356 -0.12165,-0.10874 -0.30059,-0.31216 -0.53621,-0.6095 l -0.79939,-1.01707 -4.54194,-5.75535 -1.60912,-2.03015 -0.24933,-0.0128 -1.29552,-0.0545 -2.88946,0.0309 2.46656,3.21789 5.18931,6.73049 -4.43847,0.58982 -8.15991,-11.15324 -2.00085,-2.69972 -1.77669,-2.40593 -0.49253,-0.64926 4.68008,0.37735 0.41392,0.55025 3.46591,4.57913 c 0.52159,0.0616 1.29401,0.1015 2.30163,0.11981 0.90298,0.0164 1.61088,0.005 2.13344,-0.0348 z"
       id="text9"
       style="font-size:24px;font-family:Broadway;-inkscape-font-specification:Broadway;fill:url(#linearGradient11);fill-opacity:1"
       aria-label="FILCH&#10;"
       transform="matrix(5.8741638,0,0,5.8741638,-2494.9603,-1611.0757)"
       inkscape:original-d="m 482.61865,327.66858 -0.0234,2.83594 0.0703,7.48828 v 0.53906 h -7.16016 l 0.082,-8.70703 -0.0937,-7.28906 h 12.42188 q 0.84375,0 0.94922,0.0351 0.26953,0.0703 0.26953,0.39844 0,0.41016 -0.51563,0.41016 h -0.082 l -5.87109,-0.082 -0.0469,3.63281 1.27735,0.0117 4.10156,-0.0703 0.90234,-0.0117 q 0.49219,0 0.64453,0.082 0.16407,0.082 0.16407,0.32812 0,0.45703 -0.77344,0.45703 l -0.92578,-0.0234 z m 15.70313,-5.13281 v 0.82031 l -0.0586,6.42187 0.0469,8.75391 h -7.16016 l 0.082,-9.57422 -0.082,-5.84765 0.0117,-0.57422 z m 9.92578,0 -0.0469,2.44922 -0.0469,3.90234 0.0117,2.84766 0.0469,6.03515 0.84375,0.0117 5.01563,-0.0703 0.91406,-0.0117 q 0.69141,0 0.69141,0.41016 0,0.36328 -0.375,0.39843 -0.082,0.0117 -0.53907,0.0234 h -13.72265 l 0.0351,-4.45312 0.0234,-2.73047 0.0234,-3.09375 -0.0469,-4.71094 0.0117,-1.00781 z m 14.13281,0.3164 -0.0586,8.3086 0.0586,7.05468 q 0.60938,0.082 1.00781,0.082 1.14844,0 2.35547,-0.41016 1.20703,-0.41016 2.13281,-1.11328 0.59766,-0.45703 1.23047,-1.21875 0.64453,-0.76172 1.03125,-1.48828 0.22266,-0.42188 0.48047,-0.42188 0.38672,0 0.38672,0.32813 0,0.35156 -0.58594,1.19531 -0.57422,0.83203 -1.26562,1.5 -1.5,1.44141 -3.52735,2.00391 -1.21875,0.33984 -2.34375,0.33984 -1.64062,0 -3.29296,-0.70313 -2.64844,-1.11328 -4.03125,-3.52734 -1.14844,-2.00391 -1.14844,-4.25391 0,-2.29687 1.19531,-4.33593 1.27734,-2.16797 3.60938,-3.31641 1.69921,-0.82031 3.66796,-0.82031 3.375,0 5.83594,2.28515 1.17188,1.08985 1.17188,1.57032 0,0.1289 -0.11719,0.23437 -0.11719,0.10547 -0.25781,0.10547 -0.23438,0 -0.5625,-0.45703 -1.00782,-1.39453 -2.66016,-2.20313 -1.65234,-0.82031 -3.49219,-0.82031 -0.43359,0 -0.82031,0.082 z m 24.99609,5.19141 -0.0234,-3.29297 -0.0234,-1.46484 q 0,-0.57422 0.0937,-0.77344 0.0937,-0.19922 0.38672,-0.19922 0.44531,0 0.44531,0.71484 l -0.0117,0.79688 -0.0234,2.60156 -0.0351,4.1836 0.0351,4.35937 0.0234,3.05859 q 0,0.42188 -0.0937,0.57422 -0.082,0.15235 -0.33984,0.15235 -0.26953,0 -0.375,-0.16407 -0.0937,-0.16406 -0.0937,-0.59765 l 0.0117,-0.9961 0.0352,-5.88281 v -2.17969 l -0.44531,-0.0117 -2.28516,-0.0469 -5.02734,0.0586 0.0117,3.23438 0.0703,6.36328 h -7.18359 l 0.0586,-10.16016 -0.0234,-2.68359 -0.0117,-2.47266 -0.0234,-0.67968 h 7.18359 l -0.0117,0.60937 -0.0586,4.89844 q 1.19531,0.082 3.79687,0.082 2.39063,0 3.9375,-0.082 z"
       inkscape:path-effect="#path-effect10" /><path
       d="m 455.72363,474.73563 -0.57099,10.56411 -1.24011,27.21528 -0.0965,1.92365 -12.20428,0.30526 1.44483,-30.88841 0.97361,-26.79712 22.51921,-3.20131 c 1.06863,-0.15192 1.66906,-0.19156 1.79798,-0.11843 0.33264,0.1358 0.47429,0.63417 0.42473,1.49432 -0.0619,1.07389 -0.42058,1.65481 -1.07492,1.74366 l -0.1559,0.0212 -10.90276,1.16867 -0.77603,13.79663 2.31003,-0.20833 7.58549,-1.09619 1.69888,-0.23112 c 0.61964,-0.068 1.02004,-0.007 1.20015,0.18302 0.19502,0.18856 0.2741,0.59958 0.23719,1.23261 -0.0685,1.17429 -0.59015,1.81116 -1.56238,1.91161 l -1.73138,0.0897 z m 31.4135,-23.80527 -0.78012,9.95306 -1.16677,15.59429 -0.74544,11.1791 -1.50257,23.18027 1.65463,-0.006 10.09253,-0.57774 1.88061,-0.10336 c 0.95154,-0.0294 1.38676,0.48817 1.30326,1.55178 -0.0739,0.94085 -0.37253,1.46285 -0.89529,1.56671 -0.11502,0.0331 -0.48722,0.0726 -1.11553,0.11856 l -26.77322,0.66965 1.05837,-16.5371 0.66393,-10.31824 0.75711,-11.85842 1.01531,-18.38679 0.26244,-3.99419 z m 35.02666,-4.97936 -0.32281,3.57275 -2.61171,27.4443 -3.13862,35.91302 -15.37573,0.38457 3.25401,-38.28134 1.77896,-24.29938 0.22099,-2.43167 z m 17.85178,54.28835 -0.14581,1.38953 -0.96489,9.46113 -0.12842,1.22364 -16.59296,0.41503 0.30017,-2.90438 3.36697,-34.27993 1.47689,-16.80808 1.06934,-11.63139 0.16708,-2.06374 13.03708,-1.85334 c 5.49635,-0.78136 9.67992,-0.95157 12.49155,-0.49673 2.85645,0.45594 5.17512,1.67234 6.94238,3.65196 2.3934,2.66 4.03225,6.59184 4.90598,11.77814 0.66662,3.95357 0.73355,8.15621 0.20368,12.59329 -0.56929,4.76725 -1.74968,9.34346 -3.53084,13.71841 -2.1053,5.18065 -4.67554,9.1857 -7.70025,12.03249 -2.96402,2.777 -6.16439,4.22914 -9.59826,4.38046 -1.26322,0.0557 -3.03252,-0.14738 -5.2997,-0.60649 z m 5.70257,-54.06697 -0.37309,3.5548 -3.74635,34.61252 -1.25629,12.51622 c 1.42257,0.6232 3.33712,0.87638 5.75391,0.75686 2.1843,-0.10802 4.3522,-0.97177 6.5054,-2.60108 2.17174,-1.64337 4.12527,-3.91871 5.85716,-6.83333 2.97563,-4.99651 4.86181,-10.75943 5.63163,-17.27564 0.73807,-6.24742 0.18197,-11.81195 -1.67038,-16.65075 -1.31714,-3.43669 -3.24998,-5.80895 -5.78641,-7.11297 -2.51894,-1.29503 -5.87192,-1.6533 -10.02821,-1.08744 z m 41.97493,51.89776 -0.20351,1.5042 -1.35235,10.23606 -0.17904,1.32315 -19.32533,0.48336 0.41573,-3.13361 4.71143,-37.05536 2.11331,-18.21456 1.51969,-12.62304 0.24339,-2.24096 15.28149,-2.1724 c 6.45954,-0.91829 11.37257,-1.15605 14.66358,-0.6961 3.34608,0.46093 6.04293,1.75752 8.07306,3.89322 2.751,2.87064 4.58221,7.13715 5.48055,12.77907 0.68539,4.30032 0.658,8.87678 -0.0781,13.71209 -0.79044,5.19251 -2.29465,10.17884 -4.49918,14.94686 -2.60362,5.64107 -5.72128,10.00298 -9.34019,13.10616 -3.54234,3.02405 -7.32543,4.61056 -11.34638,4.78776 -1.47823,0.0652 -3.54106,-0.14785 -6.17819,-0.6359 z m 7.97567,-58.69829 -0.5236,3.86945 -5.221,37.60214 -1.76834,13.56327 c 1.64683,0.66842 3.87823,0.93427 6.70723,0.79437 2.55847,-0.12653 5.11774,-1.07227 7.68026,-2.84876 2.58645,-1.79311 4.93432,-4.27229 7.03949,-7.44615 3.62011,-5.4461 5.98218,-11.72426 7.05155,-18.81888 1.02597,-6.80668 0.51135,-12.86094 -1.54769,-18.11213 -1.46403,-3.72911 -3.67879,-6.29105 -6.62894,-7.68147 -2.92807,-1.38001 -6.85649,-1.72952 -11.74582,-1.06386 z m 55.08817,15.12786 c -0.37709,1.89607 -0.79621,4.19414 -1.25692,6.89093 l -0.62574,3.66285 -6.72394,40.93976 13.44608,-0.64377 9.84404,-0.48128 c 1.63428,-0.0507 2.31921,0.64428 2.04956,2.08304 -0.22433,1.19694 -0.76694,1.88494 -1.62644,2.06504 -0.20073,0.0446 -1.35204,0.113 -3.44472,0.20492 l -43.7464,1.09418 0.48937,-2.89971 2.98912,-18.88284 3.39592,-20.76813 5.53349,-37.29711 43.66172,-6.2069 c 2.08102,-0.29584 3.2613,-0.39933 3.53194,-0.30914 0.63049,0.168 0.83192,0.86891 0.60382,2.10112 -0.28463,1.53764 -1.07466,2.39336 -2.36703,2.56885 l -0.30773,0.0418 -21.28931,2.45653 -3.49087,19.48199 4.45331,-0.42526 14.79694,-1.9903 3.33598,-0.42862 c 1.21649,-0.13351 1.98734,-0.0711 2.30962,0.18779 0.35163,0.25586 0.44359,0.83423 0.27583,1.73421 -0.31107,1.66874 -1.42326,2.60068 -3.32949,2.79763 l -3.37423,0.22402 z m 61.371,39.1226 c 2.41986,2.70925 5.17825,5.01276 8.28273,6.91114 3.16723,1.86682 6.7146,3.30528 10.6533,4.31281 0.96242,0.2325 1.32467,0.87204 1.08533,1.91717 -0.32857,1.43478 -1.24939,2.16871 -2.75851,2.2037 -3.42293,0.0794 -7.74239,-1.78208 -12.93883,-5.55321 -4.27447,-3.12646 -8.84726,-7.98607 -13.71731,-14.55991 l -0.54383,2.61854 -2.19013,10.76337 -1.26221,6.07678 -26.6276,0.66601 0.51693,-2.71155 3.88569,-19.9351 4.80939,-24.53961 7.45212,-39.52676 18.7814,-2.66994 c 8.72358,-1.24014 15.37528,-1.84438 19.84001,-1.79067 4.51461,0.0543 8.23976,0.82647 11.15087,2.32288 4.78868,2.41969 7.99993,7.04997 9.59656,13.86889 1.46879,6.31904 1.36146,13.11455 -0.30994,20.34089 -1.76355,7.62476 -5.04453,14.86141 -9.79609,21.67892 -7.48508,10.72375 -16.13754,16.5298 -25.90993,17.60566 z m -3.61782,-3.78658 2.24143,-0.0462 c 6.52684,-0.32003 12.6838,-3.11506 18.46563,-8.45421 3.71143,-3.3958 6.94283,-7.59736 9.68238,-12.61319 2.57053,-4.64633 4.40994,-9.36361 5.50456,-14.13957 1.87482,-8.18014 1.56909,-15.34548 -0.92782,-21.42429 -1.88426,-4.71096 -4.85837,-7.81827 -8.8972,-9.31688 -4.00306,-1.48533 -9.96443,-1.75209 -17.79046,-0.8244 l -9.83426,45.29614 -2.44927,11.795 -0.58373,3.03157 c 1.36147,2.42675 2.8904,4.65835 4.58871,6.69602 z"
       id="text3"
       style="font-size:62.7381px;font-family:Broadway;-inkscape-font-specification:Broadway;fill:url(#linearGradient12);fill-opacity:1;stroke-width:2.61409"
       aria-label="FLIPPER&#10;"
       inkscape:path-effect="#path-effect5"
       inkscape:original-d="m 469.46405,471.71391 -0.0613,7.41339 0.1838,19.57502 v 1.40916 h -18.71727 l 0.21443,-22.76094 -0.24507,-19.05425 h 32.47187 q 2.20563,0 2.48134,0.0919 0.70458,0.18381 0.70458,1.04156 0,1.07218 -1.34789,1.07218 h -0.21444 l -15.34755,-0.21444 -0.12254,9.49649 3.33909,0.0306 10.72185,-0.18381 2.3588,-0.0306 q 1.28662,0 1.68486,0.21444 0.42888,0.21443 0.42888,0.85774 0,1.19472 -2.02184,1.19472 l -2.42007,-0.0613 z m 41.14125,-13.41762 -0.12254,6.40248 -0.12253,10.20106 0.0306,7.44403 0.12254,15.77642 2.20563,0.0306 13.11129,-0.18381 2.38943,-0.0306 q 1.8074,0 1.8074,1.07218 0,0.94965 -0.98028,1.04155 -0.21444,0.0306 -1.40916,0.0613 h -35.87222 l 0.0919,-11.64086 0.0613,-7.13768 0.0613,-8.08733 -0.12254,-12.31481 0.0306,-2.63451 z m 41.90709,0 v 2.14437 l -0.15317,16.78734 0.12253,22.88348 h -18.71727 l 0.21443,-25.02784 -0.21443,-15.28629 0.0306,-1.50106 z m 25.76305,34.3099 v 0.85775 l 0.0306,5.88169 v 0.76585 H 559.6194 l 0.0306,-1.86866 0.15317,-21.53559 -0.12254,-10.2317 -0.0306,-6.95388 -0.0306,-1.22536 h 13.99966 q 8.57747,0 12.98875,0.73522 4.4419,0.73521 7.44402,2.63451 4.04366,2.5426 6.2493,7.07641 1.68486,3.46163 1.68486,7.26022 0,4.10494 -1.8993,7.84226 -2.2669,4.47254 -6.4331,6.89262 -4.13557,2.38944 -9.58839,2.38944 -2.02184,0 -5.7898,-0.52078 z m 0.0306,-32.2268 v 2.05247 l -0.12254,20.4634 0.0613,7.62783 q 2.42007,0.64331 6.27993,0.64331 3.46163,0 6.55565,-1.37852 3.09401,-1.37853 5.23838,-3.8905 3.64543,-4.2581 3.64543,-9.89473 0,-5.36092 -3.61479,-9.71093 -2.57325,-3.09401 -6.64755,-4.50317 -4.0743,-1.40916 -10.47677,-1.40916 z m 47.75814,32.2268 v 0.85775 l 0.0306,5.88169 v 0.76585 h -18.68664 l 0.0306,-1.86866 0.15317,-21.53559 -0.12254,-10.2317 -0.0306,-6.95388 -0.0306,-1.22536 h 13.99966 q 8.57747,0 12.98875,0.73522 4.4419,0.73521 7.44402,2.63451 4.04366,2.5426 6.2493,7.07641 1.68486,3.46163 1.68486,7.26022 0,4.10494 -1.8993,7.84226 -2.2669,4.47254 -6.4331,6.89262 -4.13557,2.38944 -9.58839,2.38944 -2.02184,0 -5.7898,-0.52078 z m 0.0306,-32.2268 v 2.05247 l -0.12254,20.4634 0.0613,7.62783 q 2.42007,0.64331 6.27994,0.64331 3.46162,0 6.55564,-1.37852 3.09401,-1.37853 5.23838,-3.8905 3.64543,-4.2581 3.64543,-9.89473 0,-5.36092 -3.61479,-9.71093 -2.57325,-3.09401 -6.64755,-4.50317 -4.0743,-1.40916 -10.47677,-1.40916 z m 47.72752,11.33452 q -0.0613,1.40916 -0.0613,3.43099 v 1.83803 l 0.21444,21.13735 10.38487,-0.12253 7.35212,-0.0919 q 1.80739,0 1.80739,1.10282 0,0.91902 -0.91901,1.04155 -0.21444,0.0306 -2.54261,0.0613 h -34.80004 l 0.0306,-1.59296 0.0306,-10.2317 0.12253,-10.96691 -0.24507,-19.02362 h 32.47187 q 2.175,0 2.48134,0.0919 0.70458,0.18381 0.70458,1.04156 0,1.07218 -1.34789,1.07218 h -0.21444 l -15.34755,-0.21444 -0.12253,9.49649 3.33908,0.0306 10.72185,-0.18381 2.3588,-0.0306 q 1.28662,0 1.68486,0.21444 0.42888,0.21443 0.42888,0.85774 0,1.19472 -2.02184,1.19472 l -2.42007,-0.0613 z m 48.8916,21.47432 q 2.94085,2.02184 6.34121,3.46163 3.43099,1.40915 7.35212,2.20563 0.94965,0.18381 0.94965,0.91902 0,1.01092 -1.40916,1.01092 -3.21655,0 -9.03698,-2.81832 -4.84015,-2.3588 -11.08945,-7.29085 v 1.25599 l 0.0306,5.20775 v 2.97148 h -18.656 v -1.37852 l 0.0613,-9.98663 0.0919,-11.9472 -0.0613,-18.50284 h 12.3148 q 8.27114,0 12.49861,0.45951 4.22747,0.45951 7.19895,1.7155 4.84014,2.02183 7.65846,6.64754 2.60387,4.28874 2.60387,9.00635 0,5.02395 -2.91021,9.46585 -4.68698,7.13769 -13.9384,7.59719 z m -2.91021,-1.89929 1.47042,0.0306 q 6.31057,0 10.66058,-3.52289 2.75704,-2.20564 4.22747,-5.51409 1.37852,-3.03275 1.37852,-6.18804 0,-5.36092 -3.49226,-9.58839 -2.66514,-3.27782 -6.67817,-4.62571 -4.01304,-1.34789 -11.30389,-1.43979 l -0.2757,20.52467 v 5.54473 l 0.0306,1.43979 q 1.86866,1.80739 3.9824,3.33909 z"
       transform="matrix(1.5320638,0,0,1.5320638,-324.3975,-228.59481)" /></g></svg>
