<?xml version="1.0" encoding="UTF-8" standalone="no"?>
<!-- Created with Inkscape (http://www.inkscape.org/) -->

<svg
   width="297mm"
   height="210mm"
   viewBox="0 0 1122.5197 793.70081"
   version="1.1"
   id="svg1"
   inkscape:version="1.3.2 (091e20e, 2023-11-25, custom)"
   sodipodi:docname="drawing.svg"
   xmlns:inkscape="http://www.inkscape.org/namespaces/inkscape"
   xmlns:sodipodi="http://sodipodi.sourceforge.net/DTD/sodipodi-0.dtd"
   xmlns="http://www.w3.org/2000/svg"
   xmlns:svg="http://www.w3.org/2000/svg">
  <sodipodi:namedview
     id="namedview1"
     pagecolor="#ffffff"
     bordercolor="#000000"
     borderopacity="0.25"
     inkscape:showpageshadow="2"
     inkscape:pageopacity="0.0"
     inkscape:pagecheckerboard="0"
     inkscape:deskcolor="#d1d1d1"
     inkscape:document-units="mm"
     inkscape:zoom="1.0545536"
     inkscape:cx="785.6405"
     inkscape:cy="245.12742"
     inkscape:window-width="2400"
     inkscape:window-height="1321"
     inkscape:window-x="2391"
     inkscape:window-y="-4"
     inkscape:window-maximized="1"
     inkscape:current-layer="layer2" />
  <defs
     id="defs1">
    <inkscape:path-effect
       effect="perspective-envelope"
       up_left_point="420.89274,363.74918"
       up_right_point="510.39939,374.47348"
       down_left_point="447.04496,395.56972"
       down_right_point="535.79903,392.37125"
       id="path-effect8"
       is_visible="true"
       lpeversion="1"
       deform_type="perspective"
       horizontal_mirror="false"
       vertical_mirror="false"
       overflow_perspective="false" />
    <inkscape:path-effect
       effect="perspective-envelope"
       up_left_point="444.03021,457.0584"
       up_right_point="757.51199,412.4941"
       down_left_point="441.55442,515.6402"
       down_right_point="735.22984,508.83176"
       id="path-effect5"
       is_visible="true"
       lpeversion="1"
       deform_type="perspective"
       horizontal_mirror="false"
       vertical_mirror="false"
       overflow_perspective="false" />
    <inkscape:path-effect
       effect="perspective-envelope"
       up_left_point="420.89274,363.74918"
       up_right_point="510.39939,374.47348"
       down_left_point="447.04496,395.56972"
       down_right_point="535.79903,392.37125"
       id="path-effect4"
       is_visible="true"
       lpeversion="1"
       deform_type="perspective"
       horizontal_mirror="false"
       vertical_mirror="false"
       overflow_perspective="false" />
    <rect
       x="445.68622"
       y="368.87647"
       width="75.861484"
       height="47.413428"
       id="rect2" />
  </defs>
  <g
     inkscape:label="Layer 1"
     inkscape:groupmode="layer"
     id="layer1">
    <path
       d="m 455.72363,474.73563 -0.57099,10.56411 -1.24011,27.21528 -0.0965,1.92365 -12.20428,0.30526 1.44483,-30.88841 0.97361,-26.79712 22.51921,-3.20131 c 1.06863,-0.15192 1.66906,-0.19156 1.79798,-0.11843 0.33264,0.1358 0.47429,0.63417 0.42473,1.49432 -0.0619,1.07389 -0.42058,1.65481 -1.07492,1.74366 l -0.1559,0.0212 -10.90276,1.16867 -0.77603,13.79663 2.31003,-0.20833 7.58549,-1.09619 1.69888,-0.23112 c 0.61964,-0.068 1.02004,-0.007 1.20015,0.18302 0.19502,0.18856 0.2741,0.59958 0.23719,1.23261 -0.0685,1.17429 -0.59015,1.81116 -1.56238,1.91161 l -1.73138,0.0897 z m 31.4135,-23.80527 -0.78012,9.95306 -1.16677,15.59429 -0.74544,11.1791 -1.50257,23.18027 1.65463,-0.006 10.09253,-0.57774 1.88061,-0.10336 c 0.95154,-0.0294 1.38676,0.48817 1.30326,1.55178 -0.0739,0.94085 -0.37253,1.46285 -0.89529,1.56671 -0.11502,0.0331 -0.48722,0.0726 -1.11553,0.11856 l -26.77322,0.66965 1.05837,-16.5371 0.66393,-10.31824 0.75711,-11.85842 1.01531,-18.38679 0.26244,-3.99419 z m 35.02666,-4.97936 -0.32281,3.57275 -2.61171,27.4443 -3.13862,35.91302 -15.37573,0.38457 3.25401,-38.28134 1.77896,-24.29938 0.22099,-2.43167 z m 17.85178,54.28835 -0.14581,1.38953 -0.96489,9.46113 -0.12842,1.22364 -16.59296,0.41503 0.30017,-2.90438 3.36697,-34.27993 1.47689,-16.80808 1.06934,-11.63139 0.16708,-2.06374 13.03708,-1.85334 c 5.49635,-0.78136 9.67992,-0.95157 12.49155,-0.49673 2.85645,0.45594 5.17512,1.67234 6.94238,3.65196 2.3934,2.66 4.03225,6.59184 4.90598,11.77814 0.66662,3.95357 0.73355,8.15621 0.20368,12.59329 -0.56929,4.76725 -1.74968,9.34346 -3.53084,13.71841 -2.1053,5.18065 -4.67554,9.1857 -7.70025,12.03249 -2.96402,2.777 -6.16439,4.22914 -9.59826,4.38046 -1.26322,0.0557 -3.03252,-0.14738 -5.2997,-0.60649 z m 5.70257,-54.06697 -0.37309,3.5548 -3.74635,34.61252 -1.25629,12.51622 c 1.42257,0.6232 3.33712,0.87638 5.75391,0.75686 2.1843,-0.10802 4.3522,-0.97177 6.5054,-2.60108 2.17174,-1.64337 4.12527,-3.91871 5.85716,-6.83333 2.97563,-4.99651 4.86181,-10.75943 5.63163,-17.27564 0.73807,-6.24742 0.18197,-11.81195 -1.67038,-16.65075 -1.31714,-3.43669 -3.24998,-5.80895 -5.78641,-7.11297 -2.51894,-1.29503 -5.87192,-1.6533 -10.02821,-1.08744 z m 41.97493,51.89776 -0.20351,1.5042 -1.35235,10.23606 -0.17904,1.32315 -19.32533,0.48336 0.41573,-3.13361 4.71143,-37.05536 2.11331,-18.21456 1.51969,-12.62304 0.24339,-2.24096 15.28149,-2.1724 c 6.45954,-0.91829 11.37257,-1.15605 14.66358,-0.6961 3.34608,0.46093 6.04293,1.75752 8.07306,3.89322 2.751,2.87064 4.58221,7.13715 5.48055,12.77907 0.68539,4.30032 0.658,8.87678 -0.0781,13.71209 -0.79044,5.19251 -2.29465,10.17884 -4.49918,14.94686 -2.60362,5.64107 -5.72128,10.00298 -9.34019,13.10616 -3.54234,3.02405 -7.32543,4.61056 -11.34638,4.78776 -1.47823,0.0652 -3.54106,-0.14785 -6.17819,-0.6359 z m 7.97567,-58.69829 -0.5236,3.86945 -5.221,37.60214 -1.76834,13.56327 c 1.64683,0.66842 3.87823,0.93427 6.70723,0.79437 2.55847,-0.12653 5.11774,-1.07227 7.68026,-2.84876 2.58645,-1.79311 4.93432,-4.27229 7.03949,-7.44615 3.62011,-5.4461 5.98218,-11.72426 7.05155,-18.81888 1.02597,-6.80668 0.51135,-12.86094 -1.54769,-18.11213 -1.46403,-3.72911 -3.67879,-6.29105 -6.62894,-7.68147 -2.92807,-1.38001 -6.85649,-1.72952 -11.74582,-1.06386 z m 55.08817,15.12786 c -0.37709,1.89607 -0.79621,4.19414 -1.25692,6.89093 l -0.62574,3.66285 -6.72394,40.93976 13.44608,-0.64377 9.84404,-0.48128 c 1.63428,-0.0507 2.31921,0.64428 2.04956,2.08304 -0.22433,1.19694 -0.76694,1.88494 -1.62644,2.06504 -0.20073,0.0446 -1.35204,0.113 -3.44472,0.20492 l -43.7464,1.09418 0.48937,-2.89971 2.98912,-18.88284 3.39592,-20.76813 5.53349,-37.29711 43.66172,-6.2069 c 2.08102,-0.29584 3.2613,-0.39933 3.53194,-0.30914 0.63049,0.168 0.83192,0.86891 0.60382,2.10112 -0.28463,1.53764 -1.07466,2.39336 -2.36703,2.56885 l -0.30773,0.0418 -21.28931,2.45653 -3.49087,19.48199 4.45331,-0.42526 14.79694,-1.9903 3.33598,-0.42862 c 1.21649,-0.13351 1.98734,-0.0711 2.30962,0.18779 0.35163,0.25586 0.44359,0.83423 0.27583,1.73421 -0.31107,1.66874 -1.42326,2.60068 -3.32949,2.79763 l -3.37423,0.22402 z m 61.371,39.1226 c 2.41986,2.70925 5.17825,5.01276 8.28273,6.91114 3.16723,1.86682 6.7146,3.30528 10.6533,4.31281 0.96242,0.2325 1.32467,0.87204 1.08533,1.91717 -0.32857,1.43478 -1.24939,2.16871 -2.75851,2.2037 -3.42293,0.0794 -7.74239,-1.78208 -12.93883,-5.55321 -4.27447,-3.12646 -8.84726,-7.98607 -13.71731,-14.55991 l -0.54383,2.61854 -2.19013,10.76337 -1.26221,6.07678 -26.6276,0.66601 0.51693,-2.71155 3.88569,-19.9351 4.80939,-24.53961 7.45212,-39.52676 18.7814,-2.66994 c 8.72358,-1.24014 15.37528,-1.84438 19.84001,-1.79067 4.51461,0.0543 8.23976,0.82647 11.15087,2.32288 4.78868,2.41969 7.99993,7.04997 9.59656,13.86889 1.46879,6.31904 1.36146,13.11455 -0.30994,20.34089 -1.76355,7.62476 -5.04453,14.86141 -9.79609,21.67892 -7.48508,10.72375 -16.13754,16.5298 -25.90993,17.60566 z m -3.61782,-3.78658 2.24143,-0.0462 c 6.52684,-0.32003 12.6838,-3.11506 18.46563,-8.45421 3.71143,-3.3958 6.94283,-7.59736 9.68238,-12.61319 2.57053,-4.64633 4.40994,-9.36361 5.50456,-14.13957 1.87482,-8.18014 1.56909,-15.34548 -0.92782,-21.42429 -1.88426,-4.71096 -4.85837,-7.81827 -8.8972,-9.31688 -4.00306,-1.48533 -9.96443,-1.75209 -17.79046,-0.8244 l -9.83426,45.29614 -2.44927,11.795 -0.58373,3.03157 c 1.36147,2.42675 2.8904,4.65835 4.58871,6.69602 z"
       id="text3"
       style="font-size:62.7381px;font-family:Broadway;-inkscape-font-specification:Broadway;stroke-width:2.61409"
       aria-label="FLIPPER&#10;"
       inkscape:path-effect="#path-effect5"
       inkscape:original-d="m 469.46405,471.71391 -0.0613,7.41339 0.1838,19.57502 v 1.40916 h -18.71727 l 0.21443,-22.76094 -0.24507,-19.05425 h 32.47187 q 2.20563,0 2.48134,0.0919 0.70458,0.18381 0.70458,1.04156 0,1.07218 -1.34789,1.07218 h -0.21444 l -15.34755,-0.21444 -0.12254,9.49649 3.33909,0.0306 10.72185,-0.18381 2.3588,-0.0306 q 1.28662,0 1.68486,0.21444 0.42888,0.21443 0.42888,0.85774 0,1.19472 -2.02184,1.19472 l -2.42007,-0.0613 z m 41.14125,-13.41762 -0.12254,6.40248 -0.12253,10.20106 0.0306,7.44403 0.12254,15.77642 2.20563,0.0306 13.11129,-0.18381 2.38943,-0.0306 q 1.8074,0 1.8074,1.07218 0,0.94965 -0.98028,1.04155 -0.21444,0.0306 -1.40916,0.0613 h -35.87222 l 0.0919,-11.64086 0.0613,-7.13768 0.0613,-8.08733 -0.12254,-12.31481 0.0306,-2.63451 z m 41.90709,0 v 2.14437 l -0.15317,16.78734 0.12253,22.88348 h -18.71727 l 0.21443,-25.02784 -0.21443,-15.28629 0.0306,-1.50106 z m 25.76305,34.3099 v 0.85775 l 0.0306,5.88169 v 0.76585 H 559.6194 l 0.0306,-1.86866 0.15317,-21.53559 -0.12254,-10.2317 -0.0306,-6.95388 -0.0306,-1.22536 h 13.99966 q 8.57747,0 12.98875,0.73522 4.4419,0.73521 7.44402,2.63451 4.04366,2.5426 6.2493,7.07641 1.68486,3.46163 1.68486,7.26022 0,4.10494 -1.8993,7.84226 -2.2669,4.47254 -6.4331,6.89262 -4.13557,2.38944 -9.58839,2.38944 -2.02184,0 -5.7898,-0.52078 z m 0.0306,-32.2268 v 2.05247 l -0.12254,20.4634 0.0613,7.62783 q 2.42007,0.64331 6.27993,0.64331 3.46163,0 6.55565,-1.37852 3.09401,-1.37853 5.23838,-3.8905 3.64543,-4.2581 3.64543,-9.89473 0,-5.36092 -3.61479,-9.71093 -2.57325,-3.09401 -6.64755,-4.50317 -4.0743,-1.40916 -10.47677,-1.40916 z m 47.75814,32.2268 v 0.85775 l 0.0306,5.88169 v 0.76585 h -18.68664 l 0.0306,-1.86866 0.15317,-21.53559 -0.12254,-10.2317 -0.0306,-6.95388 -0.0306,-1.22536 h 13.99966 q 8.57747,0 12.98875,0.73522 4.4419,0.73521 7.44402,2.63451 4.04366,2.5426 6.2493,7.07641 1.68486,3.46163 1.68486,7.26022 0,4.10494 -1.8993,7.84226 -2.2669,4.47254 -6.4331,6.89262 -4.13557,2.38944 -9.58839,2.38944 -2.02184,0 -5.7898,-0.52078 z m 0.0306,-32.2268 v 2.05247 l -0.12254,20.4634 0.0613,7.62783 q 2.42007,0.64331 6.27994,0.64331 3.46162,0 6.55564,-1.37852 3.09401,-1.37853 5.23838,-3.8905 3.64543,-4.2581 3.64543,-9.89473 0,-5.36092 -3.61479,-9.71093 -2.57325,-3.09401 -6.64755,-4.50317 -4.0743,-1.40916 -10.47677,-1.40916 z m 47.72752,11.33452 q -0.0613,1.40916 -0.0613,3.43099 v 1.83803 l 0.21444,21.13735 10.38487,-0.12253 7.35212,-0.0919 q 1.80739,0 1.80739,1.10282 0,0.91902 -0.91901,1.04155 -0.21444,0.0306 -2.54261,0.0613 h -34.80004 l 0.0306,-1.59296 0.0306,-10.2317 0.12253,-10.96691 -0.24507,-19.02362 h 32.47187 q 2.175,0 2.48134,0.0919 0.70458,0.18381 0.70458,1.04156 0,1.07218 -1.34789,1.07218 h -0.21444 l -15.34755,-0.21444 -0.12253,9.49649 3.33908,0.0306 10.72185,-0.18381 2.3588,-0.0306 q 1.28662,0 1.68486,0.21444 0.42888,0.21443 0.42888,0.85774 0,1.19472 -2.02184,1.19472 l -2.42007,-0.0613 z m 48.8916,21.47432 q 2.94085,2.02184 6.34121,3.46163 3.43099,1.40915 7.35212,2.20563 0.94965,0.18381 0.94965,0.91902 0,1.01092 -1.40916,1.01092 -3.21655,0 -9.03698,-2.81832 -4.84015,-2.3588 -11.08945,-7.29085 v 1.25599 l 0.0306,5.20775 v 2.97148 h -18.656 v -1.37852 l 0.0613,-9.98663 0.0919,-11.9472 -0.0613,-18.50284 h 12.3148 q 8.27114,0 12.49861,0.45951 4.22747,0.45951 7.19895,1.7155 4.84014,2.02183 7.65846,6.64754 2.60387,4.28874 2.60387,9.00635 0,5.02395 -2.91021,9.46585 -4.68698,7.13769 -13.9384,7.59719 z m -2.91021,-1.89929 1.47042,0.0306 q 6.31057,0 10.66058,-3.52289 2.75704,-2.20564 4.22747,-5.51409 1.37852,-3.03275 1.37852,-6.18804 0,-5.36092 -3.49226,-9.58839 -2.66514,-3.27782 -6.67817,-4.62571 -4.01304,-1.34789 -11.30389,-1.43979 l -0.2757,20.52467 v 5.54473 l 0.0306,1.43979 q 1.86866,1.80739 3.9824,3.33909 z"
       transform="matrix(1.5320638,0,0,1.5320638,-316.68469,-255.14634)" />
  </g>
  <g
     inkscape:groupmode="layer"
     id="layer2"
     inkscape:label="Layer 2">
    <path
       id="path7"
       style="font-size:24px;font-family:Broadway;-inkscape-font-specification:Broadway;white-space:pre;fill:#aa0000;stroke-width:5.04008"
       d="m 251.23971,228.17598 c 27.7456,33.15521 55.75947,66.09905 82.79072,99.85004 15.31706,18.85606 30.63489,37.71149 45.95147,56.56793 29.49479,-0.87686 58.9896,-1.75341 88.48437,-2.63086 -30.85522,-33.48724 -62.27051,-66.4548 -92.98828,-100.07031 16.802,1.40154 33.59528,2.94441 50.40235,4.25586 3.09179,0.0618 5.9538,-2.88124 5.48607,-6.00528 -0.10171,-0.8091 -0.43189,-1.58057 -0.906,-2.24081 17.60706,16.95726 35.17614,33.95522 52.5219,51.18024 17.27874,16.9624 34.55377,33.92858 51.82381,50.89983 22.16081,-0.66195 44.32162,-1.32381 66.48242,-1.98632 -46.83761,-42.41352 -93.66558,-84.82259 -140.16992,-127.60157 -2.17264,-1.89348 -5.20421,-1.97495 -7.93381,-2.07422 -1.63532,-0.0294 -3.20907,-0.51678 -4.83982,-0.61074 -18.54749,-2.16404 -37.09473,-4.33017 -55.64239,-6.49277 5.42234,5.41749 10.89195,10.78673 16.41854,16.09789 5.92161,5.72744 11.85523,11.44245 17.78459,17.16187 -3.92711,-2.66904 -8.82312,-3.03267 -13.42506,-3.26738 -3.21724,-0.1171 -6.47431,-0.53134 -9.72634,-0.72277 -12.2303,-0.90101 -24.42464,-1.64277 -36.63962,-2.72859 -1.61917,-0.14978 -3.35634,-0.30826 -5.01953,-0.47266 -5.64323,-6.20313 -11.28646,-12.40625 -16.92969,-18.60938 15.04694,1.78154 30.05955,3.88972 45.14687,5.302 2.19133,0.1462 4.33259,-1.43838 4.7379,-3.6145 0.51442,-2.26752 -0.56846,-4.71045 -2.48075,-5.98756 -3.04221,-2.95899 -7.31392,-4.12226 -11.42589,-4.56864 -3.23779,-0.36145 -6.50305,-0.49885 -9.71332,-1.08001 -41.13907,-4.80076 -82.27797,-9.60304 -123.41715,-14.40285 1.07552,1.28386 2.15104,2.56771 3.22656,3.85156 z m 218.50391,25.67774 c 10.94166,9.83216 22.0112,19.5211 32.99872,29.30198 22.49921,19.93091 44.93899,39.9289 67.29245,60.02316 12.88953,11.53196 25.777,23.06621 38.66781,34.59673 28.50257,-0.93477 57.0388,-1.51022 85.54492,-2.69726 2.19053,0.22911 4.34938,-1.37753 4.73984,-3.54804 0.47433,-2.06116 -0.46321,-4.31922 -2.21185,-5.4905 -0.41034,-0.42314 -0.84165,-0.8263 -1.29947,-1.19779 10.86308,4.95856 22.13662,9.12656 33.79975,11.75342 4.74481,0.8584 9.78544,1.61286 14.464,0.0245 2.50368,-0.88155 4.84621,-2.54038 6.16378,-4.87558 1.75282,-3.30764 1.39123,-7.31726 -0.006,-10.68131 -1.19215,-2.99204 -2.99092,-5.68707 -4.77866,-8.34797 9.02096,6.73094 18.04089,13.46327 27.0625,20.19336 13.44928,-0.39758 26.89846,-0.79864 40.34765,-1.19922 -25.56347,-18.44559 -51.14241,-36.87012 -76.68359,-55.34571 1.72126,0.084 3.42739,0.16389 5.10333,0.28872 2.92946,0.19347 5.85891,0.48716 8.74237,1.05113 25.23093,17.69076 50.17861,35.77819 75.54102,53.27929 2.01084,1.21015 4.59273,2.14899 6.88281,1.17383 1.43474,-0.64089 2.3565,-2.21799 2.35253,-3.75493 -0.35372,-2.688 -2.55943,-4.56387 -4.70995,-5.94233 -1.8987,-1.16167 -3.58274,-2.61976 -5.44346,-3.83838 -37.6459,-26.34709 -75.11921,-52.9405 -112.7208,-79.35037 -2.15111,-1.41674 -4.7566,-2.84069 -7.40849,-2.13545 -1.62764,0.39334 -2.70868,1.76881 -3.53858,3.12888 0.67997,2.08134 1.8757,3.99707 3.57534,5.39522 2.37208,2.06445 5.27623,3.39407 7.66619,5.4355 6.25243,4.39478 12.5063,8.78734 18.75261,13.19077 -2.69547,-0.17315 -5.51085,-0.36196 -8.03551,-0.66889 -0.97484,-0.11447 -1.90947,-0.23828 -2.79076,-0.38321 -0.96725,-0.19802 -2.01401,-0.24063 -2.91349,-0.62428 -12.82567,-9.34144 -25.64419,-18.69251 -38.45946,-28.04823 -15.23312,-1.775 -30.46623,-3.55006 -45.69922,-5.32617 4.32065,3.17402 8.64089,6.3486 12.96094,9.52344 -12.27527,-5.91395 -24.82515,-11.66747 -38.26127,-14.36395 -4.09681,-0.77969 -8.25994,-1.50285 -12.44615,-1.20735 -4.43615,0.0104 -9.06613,2.55216 -10.69297,6.81739 -1.10678,2.83092 -0.34166,5.93275 0.52884,8.71541 2.12735,6.36671 6.65521,11.49309 10.94217,16.5074 2.79041,3.28547 5.9187,6.26588 9.00075,9.27403 17.32001,16.57398 37.19457,30.19106 57.58879,42.67308 8.34958,4.92317 16.79117,9.70315 25.47265,14.01953 -2.31767,-0.51134 -4.71856,-0.44499 -7.05372,-0.11247 -7.95663,0.25748 -15.90542,0.71274 -23.86229,0.96403 -2.36601,0.0639 -4.88514,0.12811 -7.31055,0.1504 -41.72408,-35.06094 -83.52618,-70.03224 -124.8457,-105.57032 -19.89791,-2.3238 -39.79575,-4.64823 -59.69336,-6.97461 1.55794,1.40104 3.11588,2.80209 4.67383,4.20313 z m 148.93359,24.43554 c 5.46451,1.71548 10.91048,3.87107 16.06641,6.17969 8.48568,3.81273 16.7255,8.14519 24.95507,12.47266 2.39603,1.61656 6.15998,0.44697 7.04883,-2.34766 0.15013,-0.55616 0.82833,0.48946 1.19726,0.58722 17.56102,13.01993 35.07501,26.10209 52.59376,39.17841 -1.85931,1.32642 -1.98731,4.25935 -0.46515,5.88255 3.78927,5.01699 8.66305,9.15637 12.0161,14.51339 1.42384,2.15315 3.22359,4.26575 3.59358,6.90484 0.026,0.76199 0.0811,1.84993 -0.80859,2.13476 -2.11655,0.97533 -4.55104,0.58336 -6.73047,0.0371 -36.81988,-28.49727 -73.58861,-57.07258 -110.23828,-85.77929 0.25716,0.0788 0.51432,0.15755 0.77148,0.23632 z" />
  </g>
</svg>
