<?xml version="1.0" encoding="UTF-8" standalone="no"?>
<!-- Created with Inkscape (http://www.inkscape.org/) -->

<svg
   width="297mm"
   height="210mm"
   viewBox="0 0 1122.5197 793.70081"
   version="1.1"
   id="svg1"
   inkscape:version="1.3.2 (091e20e, 2023-11-25, custom)"
   sodipodi:docname="drawing.svg"
   inkscape:export-filename="Logo.png"
   inkscape:export-xdpi="96"
   inkscape:export-ydpi="96"
   xmlns:inkscape="http://www.inkscape.org/namespaces/inkscape"
   xmlns:sodipodi="http://sodipodi.sourceforge.net/DTD/sodipodi-0.dtd"
   xmlns:xlink="http://www.w3.org/1999/xlink"
   xmlns="http://www.w3.org/2000/svg"
   xmlns:svg="http://www.w3.org/2000/svg">
  <sodipodi:namedview
     id="namedview1"
     pagecolor="#ffffff"
     bordercolor="#000000"
     borderopacity="0.25"
     inkscape:showpageshadow="2"
     inkscape:pageopacity="0.0"
     inkscape:pagecheckerboard="0"
     inkscape:deskcolor="#d1d1d1"
     inkscape:document-units="mm"
     inkscape:zoom="1.0545536"
     inkscape:cx="525.34077"
     inkscape:cy="361.76445"
     inkscape:window-width="1920"
     inkscape:window-height="1051"
     inkscape:window-x="-9"
     inkscape:window-y="-9"
     inkscape:window-maximized="1"
     inkscape:current-layer="layer1" />
  <defs
     id="defs1">
    <inkscape:path-effect
       effect="perspective-envelope"
       up_left_point="444.03021,457.0584"
       up_right_point="757.51199,412.4941"
       down_left_point="441.55442,515.6402"
       down_right_point="735.22984,508.83176"
       id="path-effect19"
       is_visible="true"
       lpeversion="1"
       deform_type="perspective"
       horizontal_mirror="false"
       vertical_mirror="false"
       overflow_perspective="false" />
    <inkscape:path-effect
       effect="perspective-envelope"
       up_left_point="476.62369,314.79088"
       up_right_point="557.77977,321.73239"
       down_left_point="485.82522,349.50525"
       down_right_point="570.37134,337.55941"
       id="path-effect17"
       is_visible="true"
       lpeversion="1"
       deform_type="perspective"
       horizontal_mirror="false"
       vertical_mirror="false"
       overflow_perspective="false" />
    <linearGradient
       id="linearGradient13"
       inkscape:collect="always">
      <stop
         style="stop-color:#2c6d00;stop-opacity:1;"
         offset="0"
         id="stop12" />
      <stop
         style="stop-color:#32a50e;stop-opacity:1;"
         offset="1"
         id="stop13" />
    </linearGradient>
    <linearGradient
       id="linearGradient10"
       inkscape:collect="always">
      <stop
         style="stop-color:#4daa00;stop-opacity:1;"
         offset="0"
         id="stop10" />
      <stop
         style="stop-color:#126a00;stop-opacity:1;"
         offset="1"
         id="stop11" />
    </linearGradient>
    <inkscape:path-effect
       effect="perspective-envelope"
       up_left_point="476.62369,314.79088"
       up_right_point="557.77977,321.73239"
       down_left_point="485.82522,349.50525"
       down_right_point="570.37134,337.55941"
       id="path-effect10"
       is_visible="true"
       lpeversion="1"
       deform_type="perspective"
       horizontal_mirror="false"
       vertical_mirror="false"
       overflow_perspective="false" />
    <inkscape:path-effect
       effect="perspective-envelope"
       up_left_point="248.01315,224.32442"
       up_right_point="834.46754,224.32442"
       down_left_point="248.01315,384.59395"
       down_right_point="834.46754,384.59395"
       id="path-effect9"
       is_visible="true"
       lpeversion="1"
       deform_type="perspective"
       horizontal_mirror="false"
       vertical_mirror="false"
       overflow_perspective="false" />
    <inkscape:path-effect
       effect="perspective-envelope"
       up_left_point="248.01315,224.32442"
       up_right_point="834.46754,224.32442"
       down_left_point="248.01315,384.59395"
       down_right_point="834.46754,384.59395"
       id="path-effect6"
       is_visible="true"
       lpeversion="1"
       deform_type="perspective"
       horizontal_mirror="false"
       vertical_mirror="false"
       overflow_perspective="false" />
    <inkscape:path-effect
       effect="perspective-envelope"
       up_left_point="248.01315,224.32442"
       up_right_point="834.46754,224.32442"
       down_left_point="248.01315,384.59395"
       down_right_point="834.46754,384.59395"
       id="path-effect2"
       is_visible="true"
       lpeversion="1"
       deform_type="perspective"
       horizontal_mirror="false"
       vertical_mirror="false"
       overflow_perspective="false" />
    <inkscape:path-effect
       effect="perspective-envelope"
       up_left_point="420.89274,363.74918"
       up_right_point="510.39939,374.47348"
       down_left_point="447.04496,395.56972"
       down_right_point="535.79903,392.37125"
       id="path-effect8"
       is_visible="true"
       lpeversion="1"
       deform_type="perspective"
       horizontal_mirror="false"
       vertical_mirror="false"
       overflow_perspective="false" />
    <inkscape:path-effect
       effect="perspective-envelope"
       up_left_point="444.03021,457.0584"
       up_right_point="757.51199,412.4941"
       down_left_point="441.55442,515.6402"
       down_right_point="735.22984,508.83176"
       id="path-effect5"
       is_visible="true"
       lpeversion="1"
       deform_type="perspective"
       horizontal_mirror="false"
       vertical_mirror="false"
       overflow_perspective="false" />
    <inkscape:path-effect
       effect="perspective-envelope"
       up_left_point="420.89274,363.74918"
       up_right_point="510.39939,374.47348"
       down_left_point="447.04496,395.56972"
       down_right_point="535.79903,392.37125"
       id="path-effect4"
       is_visible="true"
       lpeversion="1"
       deform_type="perspective"
       horizontal_mirror="false"
       vertical_mirror="false"
       overflow_perspective="false" />
    <rect
       x="445.68622"
       y="368.87647"
       width="75.861484"
       height="47.413428"
       id="rect2" />
    <linearGradient
       inkscape:collect="always"
       xlink:href="#linearGradient10"
       id="linearGradient11"
       x1="509.80835"
       y1="307.84222"
       x2="509.80835"
       y2="350.2984"
       gradientUnits="userSpaceOnUse" />
    <linearGradient
       inkscape:collect="always"
       xlink:href="#linearGradient13"
       id="linearGradient12"
       x1="601.59375"
       y1="389.97809"
       x2="600.97479"
       y2="552.14258"
       gradientUnits="userSpaceOnUse" />
  </defs>
  <g
     inkscape:label="Layer 1"
     inkscape:groupmode="layer"
     id="layer1">
    <path
       d="m 494.65206,325.03775 1.77269,4.98103 5.57159,14.84553 0.43074,1.17734 -16.8927,2.24483 -4.95701,-19.4443 -3.74282,-13.25581 24.13027,1.94562 c 0.92006,0.0742 1.43933,0.13204 1.5671,0.17429 0.31773,0.0894 0.54442,0.28887 0.68132,0.5995 0.17194,0.39015 -0.0183,0.56614 -0.57487,0.52614 l -0.13346,-0.01 -10.35353,-0.86747 2.04585,5.83745 2.44221,0.0982 7.2339,0.12541 1.49198,0.0316 c 0.53694,0.0179 0.9047,0.0713 1.10638,0.16046 0.21401,0.0894 0.37706,0.25981 0.48971,0.51195 0.21017,0.47044 -0.10244,0.69714 -0.94703,0.67773 l -1.56052,-0.0726 z m 21.51334,-6.28014 0.55791,1.05716 4.58489,8.83501 7.39626,13.89995 -10.60951,1.40987 -7.52312,-16.57778 -4.11553,-8.63998 -0.34989,-0.79529 z m 11.60754,0.93591 1.70101,2.90012 2.88625,4.87064 2.27798,3.76008 5.23376,8.59726 0.90096,-0.0893 4.90496,-0.69513 0.83935,-0.11726 c 0.42248,-0.0501 0.75479,0.11351 1.00077,0.49189 0.21879,0.33657 0.22569,0.5367 0.0192,0.59964 -0.0429,0.0176 -0.20044,0.0504 -0.47396,0.0986 l -14.80159,1.96693 -3.86756,-7.11394 -2.21152,-4.07218 -2.37825,-4.37217 -3.47864,-6.21659 -0.682,-1.26408 z m 13.32626,1.38245 6.20785,9.1057 5.99203,8.65193 c 0.36957,0.0296 0.65737,0.0308 0.86451,0.004 0.59123,-0.0762 1.068,-0.32554 1.43145,-0.74284 0.35657,-0.4094 0.55406,-0.92212 0.59692,-1.53556 0.0255,-0.39264 -0.0269,-0.90122 -0.15557,-1.52219 -0.12127,-0.61228 -0.29114,-1.1981 -0.50907,-1.75943 -0.1263,-0.32299 -0.12943,-0.48699 -0.0103,-0.49357 0.17806,-0.01 0.35564,0.10723 0.53374,0.35171 0.19141,0.26277 0.38417,0.72078 0.57994,1.3806 0.19756,0.66015 0.32455,1.26861 0.37937,1.82417 0.11728,1.22754 -0.14685,2.14928 -0.81037,2.7489 -0.40788,0.37095 -0.90113,0.59954 -1.48016,0.68135 -0.85957,0.12145 -1.95212,-0.0646 -3.27795,-0.56554 -2.15711,-0.80581 -4.3699,-2.24904 -6.58783,-4.30394 -1.82895,-1.69417 -3.35618,-3.494 -4.56827,-5.3734 -1.20817,-1.87331 -1.9523,-3.59173 -2.24585,-5.14615 -0.29705,-1.59324 -0.0299,-2.73896 0.76968,-3.45962 0.57126,-0.4965 1.39237,-0.69337 2.45683,-0.60232 1.77046,0.15143 3.78313,1.02867 6.07565,2.6277 1.08697,0.75871 1.74575,1.29795 1.97974,1.62058 0.0629,0.0868 0.0925,0.1646 0.0886,0.23348 -0.004,0.069 -0.0392,0.10226 -0.10607,0.0996 -0.11166,-0.005 -0.35808,-0.16513 -0.73893,-0.48177 -1.1643,-0.96549 -2.34626,-1.74411 -3.55705,-2.34174 -1.22993,-0.61223 -2.32965,-0.95842 -3.30399,-1.03462 -0.23261,-0.0182 -0.43434,-0.007 -0.60499,0.0328 z m 20.36983,5.87842 -2.34237,-2.93998 -1.02102,-1.27306 c -0.26069,-0.32899 -0.4184,-0.54838 -0.47388,-0.65904 -0.0553,-0.1104 -0.0292,-0.16105 0.078,-0.15215 0.16242,0.0135 0.40406,0.22215 0.72673,0.62773 l 0.53713,0.68269 1.79663,2.27372 3.00817,3.80527 3.33656,4.17096 2.44702,3.05982 c 0.22856,0.2873 0.36872,0.48548 0.41998,0.59399 0.0553,0.10823 0.0394,0.16839 -0.0481,0.18035 -0.0917,0.0125 -0.20049,-0.0353 -0.32621,-0.14356 -0.12165,-0.10874 -0.30059,-0.31216 -0.53621,-0.6095 l -0.79939,-1.01707 -4.54194,-5.75535 -1.60912,-2.03015 -0.24933,-0.0128 -1.29552,-0.0545 -2.88946,0.0309 2.46656,3.21789 5.18931,6.73049 -4.43847,0.58982 -8.15991,-11.15324 -2.00085,-2.69972 -1.77669,-2.40593 -0.49253,-0.64926 4.68008,0.37735 0.41392,0.55025 3.46591,4.57913 c 0.52159,0.0616 1.29401,0.1015 2.30163,0.11981 0.90298,0.0164 1.61088,0.005 2.13344,-0.0348 z"
       id="path16"
       style="font-size:24px;font-family:Broadway;-inkscape-font-specification:Broadway;fill:#00ff00;fill-opacity:1"
       aria-label="FILCH&#10;"
       transform="matrix(6.0471688,0,0,6.0771562,-2577.455,-1681.7753)"
       inkscape:original-d="m 482.61865,327.66858 -0.0234,2.83594 0.0703,7.48828 v 0.53906 h -7.16016 l 0.082,-8.70703 -0.0937,-7.28906 h 12.42188 q 0.84375,0 0.94922,0.0351 0.26953,0.0703 0.26953,0.39844 0,0.41016 -0.51563,0.41016 h -0.082 l -5.87109,-0.082 -0.0469,3.63281 1.27735,0.0117 4.10156,-0.0703 0.90234,-0.0117 q 0.49219,0 0.64453,0.082 0.16407,0.082 0.16407,0.32812 0,0.45703 -0.77344,0.45703 l -0.92578,-0.0234 z m 15.70313,-5.13281 v 0.82031 l -0.0586,6.42187 0.0469,8.75391 h -7.16016 l 0.082,-9.57422 -0.082,-5.84765 0.0117,-0.57422 z m 9.92578,0 -0.0469,2.44922 -0.0469,3.90234 0.0117,2.84766 0.0469,6.03515 0.84375,0.0117 5.01563,-0.0703 0.91406,-0.0117 q 0.69141,0 0.69141,0.41016 0,0.36328 -0.375,0.39843 -0.082,0.0117 -0.53907,0.0234 h -13.72265 l 0.0351,-4.45312 0.0234,-2.73047 0.0234,-3.09375 -0.0469,-4.71094 0.0117,-1.00781 z m 14.13281,0.3164 -0.0586,8.3086 0.0586,7.05468 q 0.60938,0.082 1.00781,0.082 1.14844,0 2.35547,-0.41016 1.20703,-0.41016 2.13281,-1.11328 0.59766,-0.45703 1.23047,-1.21875 0.64453,-0.76172 1.03125,-1.48828 0.22266,-0.42188 0.48047,-0.42188 0.38672,0 0.38672,0.32813 0,0.35156 -0.58594,1.19531 -0.57422,0.83203 -1.26562,1.5 -1.5,1.44141 -3.52735,2.00391 -1.21875,0.33984 -2.34375,0.33984 -1.64062,0 -3.29296,-0.70313 -2.64844,-1.11328 -4.03125,-3.52734 -1.14844,-2.00391 -1.14844,-4.25391 0,-2.29687 1.19531,-4.33593 1.27734,-2.16797 3.60938,-3.31641 1.69921,-0.82031 3.66796,-0.82031 3.375,0 5.83594,2.28515 1.17188,1.08985 1.17188,1.57032 0,0.1289 -0.11719,0.23437 -0.11719,0.10547 -0.25781,0.10547 -0.23438,0 -0.5625,-0.45703 -1.00782,-1.39453 -2.66016,-2.20313 -1.65234,-0.82031 -3.49219,-0.82031 -0.43359,0 -0.82031,0.082 z m 24.99609,5.19141 -0.0234,-3.29297 -0.0234,-1.46484 q 0,-0.57422 0.0937,-0.77344 0.0937,-0.19922 0.38672,-0.19922 0.44531,0 0.44531,0.71484 l -0.0117,0.79688 -0.0234,2.60156 -0.0351,4.1836 0.0351,4.35937 0.0234,3.05859 q 0,0.42188 -0.0937,0.57422 -0.082,0.15235 -0.33984,0.15235 -0.26953,0 -0.375,-0.16407 -0.0937,-0.16406 -0.0937,-0.59765 l 0.0117,-0.9961 0.0352,-5.88281 v -2.17969 l -0.44531,-0.0117 -2.28516,-0.0469 -5.02734,0.0586 0.0117,3.23438 0.0703,6.36328 h -7.18359 l 0.0586,-10.16016 -0.0234,-2.68359 -0.0117,-2.47266 -0.0234,-0.67968 h 7.18359 l -0.0117,0.60937 -0.0586,4.89844 q 1.19531,0.082 3.79687,0.082 2.39063,0 3.9375,-0.082 z"
       inkscape:path-effect="#path-effect17" />
    <path
       d="m 455.72363,474.73563 -0.57099,10.56411 -1.24011,27.21528 -0.0965,1.92365 -12.20428,0.30526 1.44483,-30.88841 0.97361,-26.79712 22.51921,-3.20131 c 1.06863,-0.15192 1.66906,-0.19156 1.79798,-0.11843 0.33264,0.1358 0.47429,0.63417 0.42473,1.49432 -0.0619,1.07389 -0.42058,1.65481 -1.07492,1.74366 l -0.1559,0.0212 -10.90276,1.16867 -0.77603,13.79663 2.31003,-0.20833 7.58549,-1.09619 1.69888,-0.23112 c 0.61964,-0.068 1.02004,-0.007 1.20015,0.18302 0.19502,0.18856 0.2741,0.59958 0.23719,1.23261 -0.0685,1.17429 -0.59015,1.81116 -1.56238,1.91161 l -1.73138,0.0897 z m 31.4135,-23.80527 -0.78012,9.95306 -1.16677,15.59429 -0.74544,11.1791 -1.50257,23.18027 1.65463,-0.006 10.09253,-0.57774 1.88061,-0.10336 c 0.95154,-0.0294 1.38676,0.48817 1.30326,1.55178 -0.0739,0.94085 -0.37253,1.46285 -0.89529,1.56671 -0.11502,0.0331 -0.48722,0.0726 -1.11553,0.11856 l -26.77322,0.66965 1.05837,-16.5371 0.66393,-10.31824 0.75711,-11.85842 1.01531,-18.38679 0.26244,-3.99419 z m 35.02666,-4.97936 -0.32281,3.57275 -2.61171,27.4443 -3.13862,35.91302 -15.37573,0.38457 3.25401,-38.28134 1.77896,-24.29938 0.22099,-2.43167 z m 17.85178,54.28835 -0.14581,1.38953 -0.96489,9.46113 -0.12842,1.22364 -16.59296,0.41503 0.30017,-2.90438 3.36697,-34.27993 1.47689,-16.80808 1.06934,-11.63139 0.16708,-2.06374 13.03708,-1.85334 c 5.49635,-0.78136 9.67992,-0.95157 12.49155,-0.49673 2.85645,0.45594 5.17512,1.67234 6.94238,3.65196 2.3934,2.66 4.03225,6.59184 4.90598,11.77814 0.66662,3.95357 0.73355,8.15621 0.20368,12.59329 -0.56929,4.76725 -1.74968,9.34346 -3.53084,13.71841 -2.1053,5.18065 -4.67554,9.1857 -7.70025,12.03249 -2.96402,2.777 -6.16439,4.22914 -9.59826,4.38046 -1.26322,0.0557 -3.03252,-0.14738 -5.2997,-0.60649 z m 5.70257,-54.06697 -0.37309,3.5548 -3.74635,34.61252 -1.25629,12.51622 c 1.42257,0.6232 3.33712,0.87638 5.75391,0.75686 2.1843,-0.10802 4.3522,-0.97177 6.5054,-2.60108 2.17174,-1.64337 4.12527,-3.91871 5.85716,-6.83333 2.97563,-4.99651 4.86181,-10.75943 5.63163,-17.27564 0.73807,-6.24742 0.18197,-11.81195 -1.67038,-16.65075 -1.31714,-3.43669 -3.24998,-5.80895 -5.78641,-7.11297 -2.51894,-1.29503 -5.87192,-1.6533 -10.02821,-1.08744 z m 41.97493,51.89776 -0.20351,1.5042 -1.35235,10.23606 -0.17904,1.32315 -19.32533,0.48336 0.41573,-3.13361 4.71143,-37.05536 2.11331,-18.21456 1.51969,-12.62304 0.24339,-2.24096 15.28149,-2.1724 c 6.45954,-0.91829 11.37257,-1.15605 14.66358,-0.6961 3.34608,0.46093 6.04293,1.75752 8.07306,3.89322 2.751,2.87064 4.58221,7.13715 5.48055,12.77907 0.68539,4.30032 0.658,8.87678 -0.0781,13.71209 -0.79044,5.19251 -2.29465,10.17884 -4.49918,14.94686 -2.60362,5.64107 -5.72128,10.00298 -9.34019,13.10616 -3.54234,3.02405 -7.32543,4.61056 -11.34638,4.78776 -1.47823,0.0652 -3.54106,-0.14785 -6.17819,-0.6359 z m 7.97567,-58.69829 -0.5236,3.86945 -5.221,37.60214 -1.76834,13.56327 c 1.64683,0.66842 3.87823,0.93427 6.70723,0.79437 2.55847,-0.12653 5.11774,-1.07227 7.68026,-2.84876 2.58645,-1.79311 4.93432,-4.27229 7.03949,-7.44615 3.62011,-5.4461 5.98218,-11.72426 7.05155,-18.81888 1.02597,-6.80668 0.51135,-12.86094 -1.54769,-18.11213 -1.46403,-3.72911 -3.67879,-6.29105 -6.62894,-7.68147 -2.92807,-1.38001 -6.85649,-1.72952 -11.74582,-1.06386 z m 55.08817,15.12786 c -0.37709,1.89607 -0.79621,4.19414 -1.25692,6.89093 l -0.62574,3.66285 -6.72394,40.93976 13.44608,-0.64377 9.84404,-0.48128 c 1.63428,-0.0507 2.31921,0.64428 2.04956,2.08304 -0.22433,1.19694 -0.76694,1.88494 -1.62644,2.06504 -0.20073,0.0446 -1.35204,0.113 -3.44472,0.20492 l -43.7464,1.09418 0.48937,-2.89971 2.98912,-18.88284 3.39592,-20.76813 5.53349,-37.29711 43.66172,-6.2069 c 2.08102,-0.29584 3.2613,-0.39933 3.53194,-0.30914 0.63049,0.168 0.83192,0.86891 0.60382,2.10112 -0.28463,1.53764 -1.07466,2.39336 -2.36703,2.56885 l -0.30773,0.0418 -21.28931,2.45653 -3.49087,19.48199 4.45331,-0.42526 14.79694,-1.9903 3.33598,-0.42862 c 1.21649,-0.13351 1.98734,-0.0711 2.30962,0.18779 0.35163,0.25586 0.44359,0.83423 0.27583,1.73421 -0.31107,1.66874 -1.42326,2.60068 -3.32949,2.79763 l -3.37423,0.22402 z m 61.371,39.1226 c 2.41986,2.70925 5.17825,5.01276 8.28273,6.91114 3.16723,1.86682 6.7146,3.30528 10.6533,4.31281 0.96242,0.2325 1.32467,0.87204 1.08533,1.91717 -0.32857,1.43478 -1.24939,2.16871 -2.75851,2.2037 -3.42293,0.0794 -7.74239,-1.78208 -12.93883,-5.55321 -4.27447,-3.12646 -8.84726,-7.98607 -13.71731,-14.55991 l -0.54383,2.61854 -2.19013,10.76337 -1.26221,6.07678 -26.6276,0.66601 0.51693,-2.71155 3.88569,-19.9351 4.80939,-24.53961 7.45212,-39.52676 18.7814,-2.66994 c 8.72358,-1.24014 15.37528,-1.84438 19.84001,-1.79067 4.51461,0.0543 8.23976,0.82647 11.15087,2.32288 4.78868,2.41969 7.99993,7.04997 9.59656,13.86889 1.46879,6.31904 1.36146,13.11455 -0.30994,20.34089 -1.76355,7.62476 -5.04453,14.86141 -9.79609,21.67892 -7.48508,10.72375 -16.13754,16.5298 -25.90993,17.60566 z m -3.61782,-3.78658 2.24143,-0.0462 c 6.52684,-0.32003 12.6838,-3.11506 18.46563,-8.45421 3.71143,-3.3958 6.94283,-7.59736 9.68238,-12.61319 2.57053,-4.64633 4.40994,-9.36361 5.50456,-14.13957 1.87482,-8.18014 1.56909,-15.34548 -0.92782,-21.42429 -1.88426,-4.71096 -4.85837,-7.81827 -8.8972,-9.31688 -4.00306,-1.48533 -9.96443,-1.75209 -17.79046,-0.8244 l -9.83426,45.29614 -2.44927,11.795 -0.58373,3.03157 c 1.36147,2.42675 2.8904,4.65835 4.58871,6.69602 z"
       id="path17"
       style="font-size:62.7381px;font-family:Broadway;-inkscape-font-specification:Broadway;fill:#00ff00;fill-opacity:1;stroke-width:2.61409"
       aria-label="FLIPPER&#10;"
       inkscape:path-effect="#path-effect19"
       inkscape:original-d="m 469.46405,471.71391 -0.0613,7.41339 0.1838,19.57502 v 1.40916 h -18.71727 l 0.21443,-22.76094 -0.24507,-19.05425 h 32.47187 q 2.20563,0 2.48134,0.0919 0.70458,0.18381 0.70458,1.04156 0,1.07218 -1.34789,1.07218 h -0.21444 l -15.34755,-0.21444 -0.12254,9.49649 3.33909,0.0306 10.72185,-0.18381 2.3588,-0.0306 q 1.28662,0 1.68486,0.21444 0.42888,0.21443 0.42888,0.85774 0,1.19472 -2.02184,1.19472 l -2.42007,-0.0613 z m 41.14125,-13.41762 -0.12254,6.40248 -0.12253,10.20106 0.0306,7.44403 0.12254,15.77642 2.20563,0.0306 13.11129,-0.18381 2.38943,-0.0306 q 1.8074,0 1.8074,1.07218 0,0.94965 -0.98028,1.04155 -0.21444,0.0306 -1.40916,0.0613 h -35.87222 l 0.0919,-11.64086 0.0613,-7.13768 0.0613,-8.08733 -0.12254,-12.31481 0.0306,-2.63451 z m 41.90709,0 v 2.14437 l -0.15317,16.78734 0.12253,22.88348 h -18.71727 l 0.21443,-25.02784 -0.21443,-15.28629 0.0306,-1.50106 z m 25.76305,34.3099 v 0.85775 l 0.0306,5.88169 v 0.76585 H 559.6194 l 0.0306,-1.86866 0.15317,-21.53559 -0.12254,-10.2317 -0.0306,-6.95388 -0.0306,-1.22536 h 13.99966 q 8.57747,0 12.98875,0.73522 4.4419,0.73521 7.44402,2.63451 4.04366,2.5426 6.2493,7.07641 1.68486,3.46163 1.68486,7.26022 0,4.10494 -1.8993,7.84226 -2.2669,4.47254 -6.4331,6.89262 -4.13557,2.38944 -9.58839,2.38944 -2.02184,0 -5.7898,-0.52078 z m 0.0306,-32.2268 v 2.05247 l -0.12254,20.4634 0.0613,7.62783 q 2.42007,0.64331 6.27993,0.64331 3.46163,0 6.55565,-1.37852 3.09401,-1.37853 5.23838,-3.8905 3.64543,-4.2581 3.64543,-9.89473 0,-5.36092 -3.61479,-9.71093 -2.57325,-3.09401 -6.64755,-4.50317 -4.0743,-1.40916 -10.47677,-1.40916 z m 47.75814,32.2268 v 0.85775 l 0.0306,5.88169 v 0.76585 h -18.68664 l 0.0306,-1.86866 0.15317,-21.53559 -0.12254,-10.2317 -0.0306,-6.95388 -0.0306,-1.22536 h 13.99966 q 8.57747,0 12.98875,0.73522 4.4419,0.73521 7.44402,2.63451 4.04366,2.5426 6.2493,7.07641 1.68486,3.46163 1.68486,7.26022 0,4.10494 -1.8993,7.84226 -2.2669,4.47254 -6.4331,6.89262 -4.13557,2.38944 -9.58839,2.38944 -2.02184,0 -5.7898,-0.52078 z m 0.0306,-32.2268 v 2.05247 l -0.12254,20.4634 0.0613,7.62783 q 2.42007,0.64331 6.27994,0.64331 3.46162,0 6.55564,-1.37852 3.09401,-1.37853 5.23838,-3.8905 3.64543,-4.2581 3.64543,-9.89473 0,-5.36092 -3.61479,-9.71093 -2.57325,-3.09401 -6.64755,-4.50317 -4.0743,-1.40916 -10.47677,-1.40916 z m 47.72752,11.33452 q -0.0613,1.40916 -0.0613,3.43099 v 1.83803 l 0.21444,21.13735 10.38487,-0.12253 7.35212,-0.0919 q 1.80739,0 1.80739,1.10282 0,0.91902 -0.91901,1.04155 -0.21444,0.0306 -2.54261,0.0613 h -34.80004 l 0.0306,-1.59296 0.0306,-10.2317 0.12253,-10.96691 -0.24507,-19.02362 h 32.47187 q 2.175,0 2.48134,0.0919 0.70458,0.18381 0.70458,1.04156 0,1.07218 -1.34789,1.07218 h -0.21444 l -15.34755,-0.21444 -0.12253,9.49649 3.33908,0.0306 10.72185,-0.18381 2.3588,-0.0306 q 1.28662,0 1.68486,0.21444 0.42888,0.21443 0.42888,0.85774 0,1.19472 -2.02184,1.19472 l -2.42007,-0.0613 z m 48.8916,21.47432 q 2.94085,2.02184 6.34121,3.46163 3.43099,1.40915 7.35212,2.20563 0.94965,0.18381 0.94965,0.91902 0,1.01092 -1.40916,1.01092 -3.21655,0 -9.03698,-2.81832 -4.84015,-2.3588 -11.08945,-7.29085 v 1.25599 l 0.0306,5.20775 v 2.97148 h -18.656 v -1.37852 l 0.0613,-9.98663 0.0919,-11.9472 -0.0613,-18.50284 h 12.3148 q 8.27114,0 12.49861,0.45951 4.22747,0.45951 7.19895,1.7155 4.84014,2.02183 7.65846,6.64754 2.60387,4.28874 2.60387,9.00635 0,5.02395 -2.91021,9.46585 -4.68698,7.13769 -13.9384,7.59719 z m -2.91021,-1.89929 1.47042,0.0306 q 6.31057,0 10.66058,-3.52289 2.75704,-2.20564 4.22747,-5.51409 1.37852,-3.03275 1.37852,-6.18804 0,-5.36092 -3.49226,-9.58839 -2.66514,-3.27782 -6.67817,-4.62571 -4.01304,-1.34789 -11.30389,-1.43979 l -0.2757,20.52467 v 5.54473 l 0.0306,1.43979 q 1.86866,1.80739 3.9824,3.33909 z"
       transform="matrix(1.5875614,0,0,1.6005364,-341.19306,-283.75429)" />
  </g>
  <g
     inkscape:groupmode="layer"
     id="layer2"
     inkscape:label="Layer 2">
    <path
       d="m 494.65206,325.03775 1.77269,4.98103 5.57159,14.84553 0.43074,1.17734 -16.8927,2.24483 -4.95701,-19.4443 -3.74282,-13.25581 24.13027,1.94562 c 0.92006,0.0742 1.43933,0.13204 1.5671,0.17429 0.31773,0.0894 0.54442,0.28887 0.68132,0.5995 0.17194,0.39015 -0.0183,0.56614 -0.57487,0.52614 l -0.13346,-0.01 -10.35353,-0.86747 2.04585,5.83745 2.44221,0.0982 7.2339,0.12541 1.49198,0.0316 c 0.53694,0.0179 0.9047,0.0713 1.10638,0.16046 0.21401,0.0894 0.37706,0.25981 0.48971,0.51195 0.21017,0.47044 -0.10244,0.69714 -0.94703,0.67773 l -1.56052,-0.0726 z m 21.51334,-6.28014 0.55791,1.05716 4.58489,8.83501 7.39626,13.89995 -10.60951,1.40987 -7.52312,-16.57778 -4.11553,-8.63998 -0.34989,-0.79529 z m 11.60754,0.93591 1.70101,2.90012 2.88625,4.87064 2.27798,3.76008 5.23376,8.59726 0.90096,-0.0893 4.90496,-0.69513 0.83935,-0.11726 c 0.42248,-0.0501 0.75479,0.11351 1.00077,0.49189 0.21879,0.33657 0.22569,0.5367 0.0192,0.59964 -0.0429,0.0176 -0.20044,0.0504 -0.47396,0.0986 l -14.80159,1.96693 -3.86756,-7.11394 -2.21152,-4.07218 -2.37825,-4.37217 -3.47864,-6.21659 -0.682,-1.26408 z m 13.32626,1.38245 6.20785,9.1057 5.99203,8.65193 c 0.36957,0.0296 0.65737,0.0308 0.86451,0.004 0.59123,-0.0762 1.068,-0.32554 1.43145,-0.74284 0.35657,-0.4094 0.55406,-0.92212 0.59692,-1.53556 0.0255,-0.39264 -0.0269,-0.90122 -0.15557,-1.52219 -0.12127,-0.61228 -0.29114,-1.1981 -0.50907,-1.75943 -0.1263,-0.32299 -0.12943,-0.48699 -0.0103,-0.49357 0.17806,-0.01 0.35564,0.10723 0.53374,0.35171 0.19141,0.26277 0.38417,0.72078 0.57994,1.3806 0.19756,0.66015 0.32455,1.26861 0.37937,1.82417 0.11728,1.22754 -0.14685,2.14928 -0.81037,2.7489 -0.40788,0.37095 -0.90113,0.59954 -1.48016,0.68135 -0.85957,0.12145 -1.95212,-0.0646 -3.27795,-0.56554 -2.15711,-0.80581 -4.3699,-2.24904 -6.58783,-4.30394 -1.82895,-1.69417 -3.35618,-3.494 -4.56827,-5.3734 -1.20817,-1.87331 -1.9523,-3.59173 -2.24585,-5.14615 -0.29705,-1.59324 -0.0299,-2.73896 0.76968,-3.45962 0.57126,-0.4965 1.39237,-0.69337 2.45683,-0.60232 1.77046,0.15143 3.78313,1.02867 6.07565,2.6277 1.08697,0.75871 1.74575,1.29795 1.97974,1.62058 0.0629,0.0868 0.0925,0.1646 0.0886,0.23348 -0.004,0.069 -0.0392,0.10226 -0.10607,0.0996 -0.11166,-0.005 -0.35808,-0.16513 -0.73893,-0.48177 -1.1643,-0.96549 -2.34626,-1.74411 -3.55705,-2.34174 -1.22993,-0.61223 -2.32965,-0.95842 -3.30399,-1.03462 -0.23261,-0.0182 -0.43434,-0.007 -0.60499,0.0328 z m 20.36983,5.87842 -2.34237,-2.93998 -1.02102,-1.27306 c -0.26069,-0.32899 -0.4184,-0.54838 -0.47388,-0.65904 -0.0553,-0.1104 -0.0292,-0.16105 0.078,-0.15215 0.16242,0.0135 0.40406,0.22215 0.72673,0.62773 l 0.53713,0.68269 1.79663,2.27372 3.00817,3.80527 3.33656,4.17096 2.44702,3.05982 c 0.22856,0.2873 0.36872,0.48548 0.41998,0.59399 0.0553,0.10823 0.0394,0.16839 -0.0481,0.18035 -0.0917,0.0125 -0.20049,-0.0353 -0.32621,-0.14356 -0.12165,-0.10874 -0.30059,-0.31216 -0.53621,-0.6095 l -0.79939,-1.01707 -4.54194,-5.75535 -1.60912,-2.03015 -0.24933,-0.0128 -1.29552,-0.0545 -2.88946,0.0309 2.46656,3.21789 5.18931,6.73049 -4.43847,0.58982 -8.15991,-11.15324 -2.00085,-2.69972 -1.77669,-2.40593 -0.49253,-0.64926 4.68008,0.37735 0.41392,0.55025 3.46591,4.57913 c 0.52159,0.0616 1.29401,0.1015 2.30163,0.11981 0.90298,0.0164 1.61088,0.005 2.13344,-0.0348 z"
       id="text9"
       style="font-size:24px;font-family:Broadway;-inkscape-font-specification:Broadway;fill:url(#linearGradient11);fill-opacity:1"
       aria-label="FILCH&#10;"
       transform="matrix(5.8741638,0,0,5.8741638,-2494.9603,-1611.0757)"
       inkscape:original-d="m 482.61865,327.66858 -0.0234,2.83594 0.0703,7.48828 v 0.53906 h -7.16016 l 0.082,-8.70703 -0.0937,-7.28906 h 12.42188 q 0.84375,0 0.94922,0.0351 0.26953,0.0703 0.26953,0.39844 0,0.41016 -0.51563,0.41016 h -0.082 l -5.87109,-0.082 -0.0469,3.63281 1.27735,0.0117 4.10156,-0.0703 0.90234,-0.0117 q 0.49219,0 0.64453,0.082 0.16407,0.082 0.16407,0.32812 0,0.45703 -0.77344,0.45703 l -0.92578,-0.0234 z m 15.70313,-5.13281 v 0.82031 l -0.0586,6.42187 0.0469,8.75391 h -7.16016 l 0.082,-9.57422 -0.082,-5.84765 0.0117,-0.57422 z m 9.92578,0 -0.0469,2.44922 -0.0469,3.90234 0.0117,2.84766 0.0469,6.03515 0.84375,0.0117 5.01563,-0.0703 0.91406,-0.0117 q 0.69141,0 0.69141,0.41016 0,0.36328 -0.375,0.39843 -0.082,0.0117 -0.53907,0.0234 h -13.72265 l 0.0351,-4.45312 0.0234,-2.73047 0.0234,-3.09375 -0.0469,-4.71094 0.0117,-1.00781 z m 14.13281,0.3164 -0.0586,8.3086 0.0586,7.05468 q 0.60938,0.082 1.00781,0.082 1.14844,0 2.35547,-0.41016 1.20703,-0.41016 2.13281,-1.11328 0.59766,-0.45703 1.23047,-1.21875 0.64453,-0.76172 1.03125,-1.48828 0.22266,-0.42188 0.48047,-0.42188 0.38672,0 0.38672,0.32813 0,0.35156 -0.58594,1.19531 -0.57422,0.83203 -1.26562,1.5 -1.5,1.44141 -3.52735,2.00391 -1.21875,0.33984 -2.34375,0.33984 -1.64062,0 -3.29296,-0.70313 -2.64844,-1.11328 -4.03125,-3.52734 -1.14844,-2.00391 -1.14844,-4.25391 0,-2.29687 1.19531,-4.33593 1.27734,-2.16797 3.60938,-3.31641 1.69921,-0.82031 3.66796,-0.82031 3.375,0 5.83594,2.28515 1.17188,1.08985 1.17188,1.57032 0,0.1289 -0.11719,0.23437 -0.11719,0.10547 -0.25781,0.10547 -0.23438,0 -0.5625,-0.45703 -1.00782,-1.39453 -2.66016,-2.20313 -1.65234,-0.82031 -3.49219,-0.82031 -0.43359,0 -0.82031,0.082 z m 24.99609,5.19141 -0.0234,-3.29297 -0.0234,-1.46484 q 0,-0.57422 0.0937,-0.77344 0.0937,-0.19922 0.38672,-0.19922 0.44531,0 0.44531,0.71484 l -0.0117,0.79688 -0.0234,2.60156 -0.0351,4.1836 0.0351,4.35937 0.0234,3.05859 q 0,0.42188 -0.0937,0.57422 -0.082,0.15235 -0.33984,0.15235 -0.26953,0 -0.375,-0.16407 -0.0937,-0.16406 -0.0937,-0.59765 l 0.0117,-0.9961 0.0352,-5.88281 v -2.17969 l -0.44531,-0.0117 -2.28516,-0.0469 -5.02734,0.0586 0.0117,3.23438 0.0703,6.36328 h -7.18359 l 0.0586,-10.16016 -0.0234,-2.68359 -0.0117,-2.47266 -0.0234,-0.67968 h 7.18359 l -0.0117,0.60937 -0.0586,4.89844 q 1.19531,0.082 3.79687,0.082 2.39063,0 3.9375,-0.082 z"
       inkscape:path-effect="#path-effect10" />
    <path
       d="m 455.72363,474.73563 -0.57099,10.56411 -1.24011,27.21528 -0.0965,1.92365 -12.20428,0.30526 1.44483,-30.88841 0.97361,-26.79712 22.51921,-3.20131 c 1.06863,-0.15192 1.66906,-0.19156 1.79798,-0.11843 0.33264,0.1358 0.47429,0.63417 0.42473,1.49432 -0.0619,1.07389 -0.42058,1.65481 -1.07492,1.74366 l -0.1559,0.0212 -10.90276,1.16867 -0.77603,13.79663 2.31003,-0.20833 7.58549,-1.09619 1.69888,-0.23112 c 0.61964,-0.068 1.02004,-0.007 1.20015,0.18302 0.19502,0.18856 0.2741,0.59958 0.23719,1.23261 -0.0685,1.17429 -0.59015,1.81116 -1.56238,1.91161 l -1.73138,0.0897 z m 31.4135,-23.80527 -0.78012,9.95306 -1.16677,15.59429 -0.74544,11.1791 -1.50257,23.18027 1.65463,-0.006 10.09253,-0.57774 1.88061,-0.10336 c 0.95154,-0.0294 1.38676,0.48817 1.30326,1.55178 -0.0739,0.94085 -0.37253,1.46285 -0.89529,1.56671 -0.11502,0.0331 -0.48722,0.0726 -1.11553,0.11856 l -26.77322,0.66965 1.05837,-16.5371 0.66393,-10.31824 0.75711,-11.85842 1.01531,-18.38679 0.26244,-3.99419 z m 35.02666,-4.97936 -0.32281,3.57275 -2.61171,27.4443 -3.13862,35.91302 -15.37573,0.38457 3.25401,-38.28134 1.77896,-24.29938 0.22099,-2.43167 z m 17.85178,54.28835 -0.14581,1.38953 -0.96489,9.46113 -0.12842,1.22364 -16.59296,0.41503 0.30017,-2.90438 3.36697,-34.27993 1.47689,-16.80808 1.06934,-11.63139 0.16708,-2.06374 13.03708,-1.85334 c 5.49635,-0.78136 9.67992,-0.95157 12.49155,-0.49673 2.85645,0.45594 5.17512,1.67234 6.94238,3.65196 2.3934,2.66 4.03225,6.59184 4.90598,11.77814 0.66662,3.95357 0.73355,8.15621 0.20368,12.59329 -0.56929,4.76725 -1.74968,9.34346 -3.53084,13.71841 -2.1053,5.18065 -4.67554,9.1857 -7.70025,12.03249 -2.96402,2.777 -6.16439,4.22914 -9.59826,4.38046 -1.26322,0.0557 -3.03252,-0.14738 -5.2997,-0.60649 z m 5.70257,-54.06697 -0.37309,3.5548 -3.74635,34.61252 -1.25629,12.51622 c 1.42257,0.6232 3.33712,0.87638 5.75391,0.75686 2.1843,-0.10802 4.3522,-0.97177 6.5054,-2.60108 2.17174,-1.64337 4.12527,-3.91871 5.85716,-6.83333 2.97563,-4.99651 4.86181,-10.75943 5.63163,-17.27564 0.73807,-6.24742 0.18197,-11.81195 -1.67038,-16.65075 -1.31714,-3.43669 -3.24998,-5.80895 -5.78641,-7.11297 -2.51894,-1.29503 -5.87192,-1.6533 -10.02821,-1.08744 z m 41.97493,51.89776 -0.20351,1.5042 -1.35235,10.23606 -0.17904,1.32315 -19.32533,0.48336 0.41573,-3.13361 4.71143,-37.05536 2.11331,-18.21456 1.51969,-12.62304 0.24339,-2.24096 15.28149,-2.1724 c 6.45954,-0.91829 11.37257,-1.15605 14.66358,-0.6961 3.34608,0.46093 6.04293,1.75752 8.07306,3.89322 2.751,2.87064 4.58221,7.13715 5.48055,12.77907 0.68539,4.30032 0.658,8.87678 -0.0781,13.71209 -0.79044,5.19251 -2.29465,10.17884 -4.49918,14.94686 -2.60362,5.64107 -5.72128,10.00298 -9.34019,13.10616 -3.54234,3.02405 -7.32543,4.61056 -11.34638,4.78776 -1.47823,0.0652 -3.54106,-0.14785 -6.17819,-0.6359 z m 7.97567,-58.69829 -0.5236,3.86945 -5.221,37.60214 -1.76834,13.56327 c 1.64683,0.66842 3.87823,0.93427 6.70723,0.79437 2.55847,-0.12653 5.11774,-1.07227 7.68026,-2.84876 2.58645,-1.79311 4.93432,-4.27229 7.03949,-7.44615 3.62011,-5.4461 5.98218,-11.72426 7.05155,-18.81888 1.02597,-6.80668 0.51135,-12.86094 -1.54769,-18.11213 -1.46403,-3.72911 -3.67879,-6.29105 -6.62894,-7.68147 -2.92807,-1.38001 -6.85649,-1.72952 -11.74582,-1.06386 z m 55.08817,15.12786 c -0.37709,1.89607 -0.79621,4.19414 -1.25692,6.89093 l -0.62574,3.66285 -6.72394,40.93976 13.44608,-0.64377 9.84404,-0.48128 c 1.63428,-0.0507 2.31921,0.64428 2.04956,2.08304 -0.22433,1.19694 -0.76694,1.88494 -1.62644,2.06504 -0.20073,0.0446 -1.35204,0.113 -3.44472,0.20492 l -43.7464,1.09418 0.48937,-2.89971 2.98912,-18.88284 3.39592,-20.76813 5.53349,-37.29711 43.66172,-6.2069 c 2.08102,-0.29584 3.2613,-0.39933 3.53194,-0.30914 0.63049,0.168 0.83192,0.86891 0.60382,2.10112 -0.28463,1.53764 -1.07466,2.39336 -2.36703,2.56885 l -0.30773,0.0418 -21.28931,2.45653 -3.49087,19.48199 4.45331,-0.42526 14.79694,-1.9903 3.33598,-0.42862 c 1.21649,-0.13351 1.98734,-0.0711 2.30962,0.18779 0.35163,0.25586 0.44359,0.83423 0.27583,1.73421 -0.31107,1.66874 -1.42326,2.60068 -3.32949,2.79763 l -3.37423,0.22402 z m 61.371,39.1226 c 2.41986,2.70925 5.17825,5.01276 8.28273,6.91114 3.16723,1.86682 6.7146,3.30528 10.6533,4.31281 0.96242,0.2325 1.32467,0.87204 1.08533,1.91717 -0.32857,1.43478 -1.24939,2.16871 -2.75851,2.2037 -3.42293,0.0794 -7.74239,-1.78208 -12.93883,-5.55321 -4.27447,-3.12646 -8.84726,-7.98607 -13.71731,-14.55991 l -0.54383,2.61854 -2.19013,10.76337 -1.26221,6.07678 -26.6276,0.66601 0.51693,-2.71155 3.88569,-19.9351 4.80939,-24.53961 7.45212,-39.52676 18.7814,-2.66994 c 8.72358,-1.24014 15.37528,-1.84438 19.84001,-1.79067 4.51461,0.0543 8.23976,0.82647 11.15087,2.32288 4.78868,2.41969 7.99993,7.04997 9.59656,13.86889 1.46879,6.31904 1.36146,13.11455 -0.30994,20.34089 -1.76355,7.62476 -5.04453,14.86141 -9.79609,21.67892 -7.48508,10.72375 -16.13754,16.5298 -25.90993,17.60566 z m -3.61782,-3.78658 2.24143,-0.0462 c 6.52684,-0.32003 12.6838,-3.11506 18.46563,-8.45421 3.71143,-3.3958 6.94283,-7.59736 9.68238,-12.61319 2.57053,-4.64633 4.40994,-9.36361 5.50456,-14.13957 1.87482,-8.18014 1.56909,-15.34548 -0.92782,-21.42429 -1.88426,-4.71096 -4.85837,-7.81827 -8.8972,-9.31688 -4.00306,-1.48533 -9.96443,-1.75209 -17.79046,-0.8244 l -9.83426,45.29614 -2.44927,11.795 -0.58373,3.03157 c 1.36147,2.42675 2.8904,4.65835 4.58871,6.69602 z"
       id="text3"
       style="font-size:62.7381px;font-family:Broadway;-inkscape-font-specification:Broadway;stroke-width:2.61409;fill-opacity:1;fill:url(#linearGradient12)"
       aria-label="FLIPPER&#10;"
       inkscape:path-effect="#path-effect5"
       inkscape:original-d="m 469.46405,471.71391 -0.0613,7.41339 0.1838,19.57502 v 1.40916 h -18.71727 l 0.21443,-22.76094 -0.24507,-19.05425 h 32.47187 q 2.20563,0 2.48134,0.0919 0.70458,0.18381 0.70458,1.04156 0,1.07218 -1.34789,1.07218 h -0.21444 l -15.34755,-0.21444 -0.12254,9.49649 3.33909,0.0306 10.72185,-0.18381 2.3588,-0.0306 q 1.28662,0 1.68486,0.21444 0.42888,0.21443 0.42888,0.85774 0,1.19472 -2.02184,1.19472 l -2.42007,-0.0613 z m 41.14125,-13.41762 -0.12254,6.40248 -0.12253,10.20106 0.0306,7.44403 0.12254,15.77642 2.20563,0.0306 13.11129,-0.18381 2.38943,-0.0306 q 1.8074,0 1.8074,1.07218 0,0.94965 -0.98028,1.04155 -0.21444,0.0306 -1.40916,0.0613 h -35.87222 l 0.0919,-11.64086 0.0613,-7.13768 0.0613,-8.08733 -0.12254,-12.31481 0.0306,-2.63451 z m 41.90709,0 v 2.14437 l -0.15317,16.78734 0.12253,22.88348 h -18.71727 l 0.21443,-25.02784 -0.21443,-15.28629 0.0306,-1.50106 z m 25.76305,34.3099 v 0.85775 l 0.0306,5.88169 v 0.76585 H 559.6194 l 0.0306,-1.86866 0.15317,-21.53559 -0.12254,-10.2317 -0.0306,-6.95388 -0.0306,-1.22536 h 13.99966 q 8.57747,0 12.98875,0.73522 4.4419,0.73521 7.44402,2.63451 4.04366,2.5426 6.2493,7.07641 1.68486,3.46163 1.68486,7.26022 0,4.10494 -1.8993,7.84226 -2.2669,4.47254 -6.4331,6.89262 -4.13557,2.38944 -9.58839,2.38944 -2.02184,0 -5.7898,-0.52078 z m 0.0306,-32.2268 v 2.05247 l -0.12254,20.4634 0.0613,7.62783 q 2.42007,0.64331 6.27993,0.64331 3.46163,0 6.55565,-1.37852 3.09401,-1.37853 5.23838,-3.8905 3.64543,-4.2581 3.64543,-9.89473 0,-5.36092 -3.61479,-9.71093 -2.57325,-3.09401 -6.64755,-4.50317 -4.0743,-1.40916 -10.47677,-1.40916 z m 47.75814,32.2268 v 0.85775 l 0.0306,5.88169 v 0.76585 h -18.68664 l 0.0306,-1.86866 0.15317,-21.53559 -0.12254,-10.2317 -0.0306,-6.95388 -0.0306,-1.22536 h 13.99966 q 8.57747,0 12.98875,0.73522 4.4419,0.73521 7.44402,2.63451 4.04366,2.5426 6.2493,7.07641 1.68486,3.46163 1.68486,7.26022 0,4.10494 -1.8993,7.84226 -2.2669,4.47254 -6.4331,6.89262 -4.13557,2.38944 -9.58839,2.38944 -2.02184,0 -5.7898,-0.52078 z m 0.0306,-32.2268 v 2.05247 l -0.12254,20.4634 0.0613,7.62783 q 2.42007,0.64331 6.27994,0.64331 3.46162,0 6.55564,-1.37852 3.09401,-1.37853 5.23838,-3.8905 3.64543,-4.2581 3.64543,-9.89473 0,-5.36092 -3.61479,-9.71093 -2.57325,-3.09401 -6.64755,-4.50317 -4.0743,-1.40916 -10.47677,-1.40916 z m 47.72752,11.33452 q -0.0613,1.40916 -0.0613,3.43099 v 1.83803 l 0.21444,21.13735 10.38487,-0.12253 7.35212,-0.0919 q 1.80739,0 1.80739,1.10282 0,0.91902 -0.91901,1.04155 -0.21444,0.0306 -2.54261,0.0613 h -34.80004 l 0.0306,-1.59296 0.0306,-10.2317 0.12253,-10.96691 -0.24507,-19.02362 h 32.47187 q 2.175,0 2.48134,0.0919 0.70458,0.18381 0.70458,1.04156 0,1.07218 -1.34789,1.07218 h -0.21444 l -15.34755,-0.21444 -0.12253,9.49649 3.33908,0.0306 10.72185,-0.18381 2.3588,-0.0306 q 1.28662,0 1.68486,0.21444 0.42888,0.21443 0.42888,0.85774 0,1.19472 -2.02184,1.19472 l -2.42007,-0.0613 z m 48.8916,21.47432 q 2.94085,2.02184 6.34121,3.46163 3.43099,1.40915 7.35212,2.20563 0.94965,0.18381 0.94965,0.91902 0,1.01092 -1.40916,1.01092 -3.21655,0 -9.03698,-2.81832 -4.84015,-2.3588 -11.08945,-7.29085 v 1.25599 l 0.0306,5.20775 v 2.97148 h -18.656 v -1.37852 l 0.0613,-9.98663 0.0919,-11.9472 -0.0613,-18.50284 h 12.3148 q 8.27114,0 12.49861,0.45951 4.22747,0.45951 7.19895,1.7155 4.84014,2.02183 7.65846,6.64754 2.60387,4.28874 2.60387,9.00635 0,5.02395 -2.91021,9.46585 -4.68698,7.13769 -13.9384,7.59719 z m -2.91021,-1.89929 1.47042,0.0306 q 6.31057,0 10.66058,-3.52289 2.75704,-2.20564 4.22747,-5.51409 1.37852,-3.03275 1.37852,-6.18804 0,-5.36092 -3.49226,-9.58839 -2.66514,-3.27782 -6.67817,-4.62571 -4.01304,-1.34789 -11.30389,-1.43979 l -0.2757,20.52467 v 5.54473 l 0.0306,1.43979 q 1.86866,1.80739 3.9824,3.33909 z"
       transform="matrix(1.5320638,0,0,1.5320638,-316.68468,-255.14633)" />
  </g>
</svg>
