<?xml version="1.0" encoding="UTF-8" standalone="no"?>
<!-- Created with Inkscape (http://www.inkscape.org/) -->

<svg
   width="200mm"
   height="200mm"
   viewBox="0 0 200 200"
   version="1.1"
   id="svg1"
   inkscape:export-filename="Tutorial Button.png"
   inkscape:export-xdpi="96"
   inkscape:export-ydpi="96"
   inkscape:version="1.3.2 (091e20e, 2023-11-25, custom)"
   sodipodi:docname="Tutorial Button.svg"
   xmlns:inkscape="http://www.inkscape.org/namespaces/inkscape"
   xmlns:sodipodi="http://sodipodi.sourceforge.net/DTD/sodipodi-0.dtd"
   xmlns="http://www.w3.org/2000/svg"
   xmlns:svg="http://www.w3.org/2000/svg">
  <sodipodi:namedview
     id="namedview1"
     pagecolor="#ffffff"
     bordercolor="#000000"
     borderopacity="0.25"
     inkscape:showpageshadow="2"
     inkscape:pageopacity="0.0"
     inkscape:pagecheckerboard="0"
     inkscape:deskcolor="#d1d1d1"
     inkscape:document-units="mm"
     inkscape:zoom="0.74564394"
     inkscape:cx="577.35331"
     inkscape:cy="660.50292"
     inkscape:window-width="1920"
     inkscape:window-height="1051"
     inkscape:window-x="-9"
     inkscape:window-y="-9"
     inkscape:window-maximized="1"
     inkscape:current-layer="g2" />
  <defs
     id="defs1" />
  <g
     inkscape:label="Layer 1"
     inkscape:groupmode="layer"
     id="layer1">
    <g
       id="g2"
       transform="translate(15.054531,14.552714)">
      <ellipse
         style="fill:#008000;fill-opacity:1;stroke:#000000;stroke-width:0.328372"
         id="path1"
         cx="84.938293"
         cy="84.93885"
         rx="84.774109"
         ry="84.774666" />
      <path
         d="m 84.59847,88.196115 v 4.5031 h -3.31551 l 0.148411,-39.637624 q -7.076364,0.395812 -12.173334,4.651701 -4.255728,3.51342 -4.255728,7.868082 0,0.890558 0.197906,1.880392 0.29684,1.385323 0.29684,1.979363 0,0.692652 -0.59386,1.236893 -0.593879,0.494765 -1.435122,0.494765 -1.138102,0 -1.880428,-1.187435 -0.742308,-1.187417 -0.742308,-2.969017 0,-3.563058 2.276329,-7.125954 2.276311,-3.612372 6.086679,-6.136119 6.284621,-4.156775 16.132146,-4.156775 12.668192,0 19.398189,6.680522 5.09697,5.096971 5.09697,12.767147 0,6.631037 -4.10726,11.480625 -3.31551,3.95869 -7.917627,5.641194 -4.55264,1.63303 -13.212562,2.02898 z m -1.830947,10.54026 q 6.48254,0 10.54034,3.068155 4.10727,3.06797 4.10727,7.96704 0,4.45361 -3.21655,7.32386 -4.10726,3.61237 -11.233119,3.61237 -6.532021,0 -10.688772,-2.96904 -4.107281,-3.01865 -4.107281,-7.76929 0,-4.84942 3.71138,-7.86808 4.008304,-3.266055 10.886732,-3.365015 z"
         id="text1"
         style="font-size:6.35px;font-family:Broadway;-inkscape-font-specification:Broadway;fill:#ffffff;stroke:#000000;stroke-width:4.22273"
         aria-label="?&#10;" />
    </g>
  </g>
</svg>
